<svg width="100" height="53" viewBox="0 0 100 53" fill="none" xmlns="http://www.w3.org/2000/svg">
<rect width="100" height="53" fill="white"/>
<mask id="path-1-outside-1_37_31" maskUnits="userSpaceOnUse" x="29" y="14" width="40" height="14" fill="black">
<rect fill="white" x="29" y="14" width="40" height="14"/>
<path d="M39.664 18.744C39.5573 19.384 39.296 19.9173 38.88 20.344C38.464 20.7707 37.952 21.0853 37.344 21.288C37.8347 21.3733 38.24 21.624 38.56 22.04C38.88 22.456 39.04 22.9467 39.04 23.512C39.04 23.6827 39.024 23.848 38.992 24.008C38.896 24.5733 38.6613 25.0853 38.288 25.544C37.9147 25.992 37.424 26.3493 36.816 26.616C36.2187 26.872 35.552 27 34.816 27H30.368L32.336 15.88H36.576C37.5893 15.88 38.3627 16.0987 38.896 16.536C39.44 16.9733 39.712 17.5387 39.712 18.232C39.712 18.392 39.696 18.5627 39.664 18.744ZM37.776 18.968C37.7973 18.8187 37.808 18.7067 37.808 18.632C37.808 18.216 37.664 17.8907 37.376 17.656C37.088 17.4213 36.6827 17.304 36.16 17.304H33.904L33.328 20.6H35.584C36.1813 20.6 36.672 20.456 37.056 20.168C37.4507 19.88 37.6907 19.48 37.776 18.968ZM37.2 23.816C37.2213 23.6453 37.232 23.5227 37.232 23.448C37.232 23.0107 37.072 22.664 36.752 22.408C36.432 22.152 36.0053 22.024 35.472 22.024H33.072L32.448 25.576H34.912C35.5307 25.576 36.0427 25.4213 36.448 25.112C36.8533 24.8027 37.104 24.3707 37.2 23.816ZM43.5021 27.144C42.7555 27.144 42.0995 26.9893 41.5341 26.68C40.9688 26.3707 40.5261 25.9333 40.2061 25.368C39.8968 24.8027 39.7421 24.1573 39.7421 23.432C39.7421 22.44 39.9715 21.5333 40.4301 20.712C40.8995 19.8907 41.5395 19.24 42.3501 18.76C43.1715 18.28 44.0835 18.04 45.0861 18.04C45.8328 18.04 46.4941 18.2 47.0701 18.52C47.6461 18.8293 48.0941 19.2667 48.4141 19.832C48.7448 20.3867 48.9101 21.032 48.9101 21.768C48.9101 22.76 48.6701 23.6667 48.1901 24.488C47.7101 25.3093 47.0595 25.96 46.2381 26.44C45.4168 26.9093 44.5048 27.144 43.5021 27.144ZM43.7261 25.608C44.3341 25.608 44.8888 25.4373 45.3901 25.096C45.9021 24.744 46.3021 24.2853 46.5901 23.72C46.8781 23.144 47.0221 22.5307 47.0221 21.88C47.0221 21.144 46.8141 20.5787 46.3981 20.184C45.9821 19.7787 45.4595 19.576 44.8301 19.576C44.2115 19.576 43.6568 19.752 43.1661 20.104C42.6861 20.4453 42.3075 20.9093 42.0301 21.496C41.7635 22.072 41.6301 22.6907 41.6301 23.352C41.6301 24.0667 41.8221 24.6213 42.2061 25.016C42.6008 25.4107 43.1075 25.608 43.7261 25.608ZM52.9052 27.144C52.1586 27.144 51.5026 26.9893 50.9372 26.68C50.3719 26.3707 49.9292 25.9333 49.6092 25.368C49.2999 24.8027 49.1452 24.1573 49.1452 23.432C49.1452 22.44 49.3746 21.5333 49.8332 20.712C50.3026 19.8907 50.9426 19.24 51.7532 18.76C52.5746 18.28 53.4866 18.04 54.4892 18.04C55.2359 18.04 55.8973 18.2 56.4732 18.52C57.0492 18.8293 57.4972 19.2667 57.8173 19.832C58.1479 20.3867 58.3133 21.032 58.3133 21.768C58.3133 22.76 58.0733 23.6667 57.5933 24.488C57.1133 25.3093 56.4626 25.96 55.6413 26.44C54.8199 26.9093 53.9079 27.144 52.9052 27.144ZM53.1293 25.608C53.7372 25.608 54.2919 25.4373 54.7933 25.096C55.3052 24.744 55.7052 24.2853 55.9932 23.72C56.2812 23.144 56.4253 22.5307 56.4253 21.88C56.4253 21.144 56.2173 20.5787 55.8012 20.184C55.3852 19.7787 54.8626 19.576 54.2332 19.576C53.6146 19.576 53.0599 19.752 52.5692 20.104C52.0892 20.4453 51.7106 20.9093 51.4332 21.496C51.1666 22.072 51.0332 22.6907 51.0332 23.352C51.0332 24.0667 51.2252 24.6213 51.6092 25.016C52.0039 25.4107 52.5106 25.608 53.1293 25.608ZM62.7084 22.6L66.0044 27H63.5404L60.9484 23.208L60.2764 27H58.4524L60.5484 15.16H62.3724L61.1564 22.024L65.0284 18.184H67.5564L62.7084 22.6Z"/>
</mask>
<path d="M39.664 18.744C39.5573 19.384 39.296 19.9173 38.88 20.344C38.464 20.7707 37.952 21.0853 37.344 21.288C37.8347 21.3733 38.24 21.624 38.56 22.04C38.88 22.456 39.04 22.9467 39.04 23.512C39.04 23.6827 39.024 23.848 38.992 24.008C38.896 24.5733 38.6613 25.0853 38.288 25.544C37.9147 25.992 37.424 26.3493 36.816 26.616C36.2187 26.872 35.552 27 34.816 27H30.368L32.336 15.88H36.576C37.5893 15.88 38.3627 16.0987 38.896 16.536C39.44 16.9733 39.712 17.5387 39.712 18.232C39.712 18.392 39.696 18.5627 39.664 18.744ZM37.776 18.968C37.7973 18.8187 37.808 18.7067 37.808 18.632C37.808 18.216 37.664 17.8907 37.376 17.656C37.088 17.4213 36.6827 17.304 36.16 17.304H33.904L33.328 20.6H35.584C36.1813 20.6 36.672 20.456 37.056 20.168C37.4507 19.88 37.6907 19.48 37.776 18.968ZM37.2 23.816C37.2213 23.6453 37.232 23.5227 37.232 23.448C37.232 23.0107 37.072 22.664 36.752 22.408C36.432 22.152 36.0053 22.024 35.472 22.024H33.072L32.448 25.576H34.912C35.5307 25.576 36.0427 25.4213 36.448 25.112C36.8533 24.8027 37.104 24.3707 37.2 23.816ZM43.5021 27.144C42.7555 27.144 42.0995 26.9893 41.5341 26.68C40.9688 26.3707 40.5261 25.9333 40.2061 25.368C39.8968 24.8027 39.7421 24.1573 39.7421 23.432C39.7421 22.44 39.9715 21.5333 40.4301 20.712C40.8995 19.8907 41.5395 19.24 42.3501 18.76C43.1715 18.28 44.0835 18.04 45.0861 18.04C45.8328 18.04 46.4941 18.2 47.0701 18.52C47.6461 18.8293 48.0941 19.2667 48.4141 19.832C48.7448 20.3867 48.9101 21.032 48.9101 21.768C48.9101 22.76 48.6701 23.6667 48.1901 24.488C47.7101 25.3093 47.0595 25.96 46.2381 26.44C45.4168 26.9093 44.5048 27.144 43.5021 27.144ZM43.7261 25.608C44.3341 25.608 44.8888 25.4373 45.3901 25.096C45.9021 24.744 46.3021 24.2853 46.5901 23.72C46.8781 23.144 47.0221 22.5307 47.0221 21.88C47.0221 21.144 46.8141 20.5787 46.3981 20.184C45.9821 19.7787 45.4595 19.576 44.8301 19.576C44.2115 19.576 43.6568 19.752 43.1661 20.104C42.6861 20.4453 42.3075 20.9093 42.0301 21.496C41.7635 22.072 41.6301 22.6907 41.6301 23.352C41.6301 24.0667 41.8221 24.6213 42.2061 25.016C42.6008 25.4107 43.1075 25.608 43.7261 25.608ZM52.9052 27.144C52.1586 27.144 51.5026 26.9893 50.9372 26.68C50.3719 26.3707 49.9292 25.9333 49.6092 25.368C49.2999 24.8027 49.1452 24.1573 49.1452 23.432C49.1452 22.44 49.3746 21.5333 49.8332 20.712C50.3026 19.8907 50.9426 19.24 51.7532 18.76C52.5746 18.28 53.4866 18.04 54.4892 18.04C55.2359 18.04 55.8973 18.2 56.4732 18.52C57.0492 18.8293 57.4972 19.2667 57.8173 19.832C58.1479 20.3867 58.3133 21.032 58.3133 21.768C58.3133 22.76 58.0733 23.6667 57.5933 24.488C57.1133 25.3093 56.4626 25.96 55.6413 26.44C54.8199 26.9093 53.9079 27.144 52.9052 27.144ZM53.1293 25.608C53.7372 25.608 54.2919 25.4373 54.7933 25.096C55.3052 24.744 55.7052 24.2853 55.9932 23.72C56.2812 23.144 56.4253 22.5307 56.4253 21.88C56.4253 21.144 56.2173 20.5787 55.8012 20.184C55.3852 19.7787 54.8626 19.576 54.2332 19.576C53.6146 19.576 53.0599 19.752 52.5692 20.104C52.0892 20.4453 51.7106 20.9093 51.4332 21.496C51.1666 22.072 51.0332 22.6907 51.0332 23.352C51.0332 24.0667 51.2252 24.6213 51.6092 25.016C52.0039 25.4107 52.5106 25.608 53.1293 25.608ZM62.7084 22.6L66.0044 27H63.5404L60.9484 23.208L60.2764 27H58.4524L60.5484 15.16H62.3724L61.1564 22.024L65.0284 18.184H67.5564L62.7084 22.6Z" fill="black"/>
<path d="M39.664 18.744L39.3193 18.6832L39.3188 18.6865L39.664 18.744ZM38.88 20.344L38.6294 20.0997L38.88 20.344ZM37.344 21.288L37.2333 20.956L37.284 21.6328L37.344 21.288ZM38.56 22.04L38.8374 21.8266L38.56 22.04ZM38.992 24.008L38.6487 23.9393L38.6469 23.9494L38.992 24.008ZM38.288 25.544L38.5569 25.7681L38.5594 25.7649L38.288 25.544ZM36.816 26.616L36.9539 26.9377L36.9566 26.9365L36.816 26.616ZM30.368 27L30.0234 26.939L29.9506 27.35H30.368V27ZM32.336 15.88V15.53H32.0425L31.9914 15.819L32.336 15.88ZM38.896 16.536L38.6741 16.8067L38.6767 16.8088L38.896 16.536ZM37.776 18.968L38.1213 19.0256L38.1225 19.0175L37.776 18.968ZM37.376 17.656L37.5971 17.3847L37.5971 17.3847L37.376 17.656ZM33.904 17.304V16.954H33.6099L33.5592 17.2437L33.904 17.304ZM33.328 20.6L32.9832 20.5397L32.9115 20.95H33.328V20.6ZM37.056 20.168L36.8497 19.8852L36.846 19.888L37.056 20.168ZM37.2 23.816L37.5449 23.8757L37.5463 23.8676L37.5473 23.8594L37.2 23.816ZM36.752 22.408L36.5334 22.6813L36.752 22.408ZM33.072 22.024V21.674H32.7781L32.7273 21.9634L33.072 22.024ZM32.448 25.576L32.1033 25.5154L32.0312 25.926H32.448V25.576ZM36.448 25.112L36.6603 25.3902L36.448 25.112ZM39.3188 18.6865C39.2227 19.2626 38.9911 19.7287 38.6294 20.0997L39.1306 20.5883C39.6009 20.106 39.8919 19.5054 40.0092 18.8015L39.3188 18.6865ZM38.6294 20.0997C38.2553 20.4834 37.7924 20.7696 37.2333 20.956L37.4547 21.62C38.1116 21.4011 38.6727 21.058 39.1306 20.5883L38.6294 20.0997ZM37.284 21.6328C37.6833 21.7023 38.0129 21.9028 38.2826 22.2534L38.8374 21.8266C38.4671 21.3452 37.986 21.0444 37.404 20.9432L37.284 21.6328ZM38.2826 22.2534C38.5518 22.6034 38.69 23.0175 38.69 23.512H39.39C39.39 22.8758 39.2082 22.3086 38.8374 21.8266L38.2826 22.2534ZM38.69 23.512C38.69 23.6607 38.6761 23.803 38.6488 23.9394L39.3352 24.0766C39.3719 23.893 39.39 23.7047 39.39 23.512H38.69ZM38.6469 23.9494C38.5614 24.4533 38.353 24.9097 38.0166 25.3231L38.5594 25.7649C38.9697 25.261 39.2306 24.6934 39.3371 24.0666L38.6469 23.9494ZM38.0191 25.3199C37.685 25.7208 37.2407 26.0476 36.6754 26.2955L36.9566 26.9365C37.6073 26.6511 38.1443 26.2632 38.5569 25.7681L38.0191 25.3199ZM36.6781 26.2943C36.1298 26.5293 35.5109 26.65 34.816 26.65V27.35C35.5931 27.35 36.3076 27.2147 36.9539 26.9377L36.6781 26.2943ZM34.816 26.65H30.368V27.35H34.816V26.65ZM30.7126 27.061L32.6806 15.941L31.9914 15.819L30.0234 26.939L30.7126 27.061ZM32.336 16.23H36.576V15.53H32.336V16.23ZM36.576 16.23C37.5452 16.23 38.2268 16.4399 38.6741 16.8066L39.1179 16.2654C38.4985 15.7574 37.6335 15.53 36.576 15.53V16.23ZM38.6767 16.8088C39.1387 17.1802 39.362 17.6455 39.362 18.232H40.062C40.062 17.4318 39.7413 16.7665 39.1153 16.2632L38.6767 16.8088ZM39.362 18.232C39.362 18.3688 39.3483 18.519 39.3193 18.6832L40.0087 18.8048C40.0437 18.6063 40.062 18.4152 40.062 18.232H39.362ZM38.1225 19.0175C38.1443 18.8648 38.158 18.7326 38.158 18.632H37.458C37.458 18.6808 37.4504 18.7726 37.4295 18.9185L38.1225 19.0175ZM38.158 18.632C38.158 18.125 37.9771 17.6943 37.5971 17.3847L37.1549 17.9273C37.3509 18.087 37.458 18.307 37.458 18.632H38.158ZM37.5971 17.3847C37.2255 17.0819 36.731 16.954 36.16 16.954V17.654C36.6344 17.654 36.9505 17.7607 37.1549 17.9273L37.5971 17.3847ZM36.16 16.954H33.904V17.654H36.16V16.954ZM33.5592 17.2437L32.9832 20.5397L33.6728 20.6603L34.2488 17.3643L33.5592 17.2437ZM33.328 20.95H35.584V20.25H33.328V20.95ZM35.584 20.95C36.2382 20.95 36.8079 20.7916 37.266 20.448L36.846 19.888C36.5361 20.1204 36.1244 20.25 35.584 20.25V20.95ZM37.2623 20.4507C37.7359 20.1051 38.0219 19.6217 38.1212 19.0255L37.4308 18.9105C37.3594 19.3383 37.1654 19.6549 36.8497 19.8853L37.2623 20.4507ZM37.5473 23.8594C37.5687 23.688 37.582 23.5464 37.582 23.448H36.882C36.882 23.4989 36.8739 23.6027 36.8527 23.7726L37.5473 23.8594ZM37.582 23.448C37.582 22.9126 37.3799 22.4621 36.9706 22.1347L36.5334 22.6813C36.7641 22.8659 36.882 23.1088 36.882 23.448H37.582ZM36.9706 22.1347C36.572 21.8158 36.0606 21.674 35.472 21.674V22.374C35.95 22.374 36.292 22.4882 36.5334 22.6813L36.9706 22.1347ZM35.472 21.674H33.072V22.374H35.472V21.674ZM32.7273 21.9634L32.1033 25.5154L32.7927 25.6366L33.4167 22.0846L32.7273 21.9634ZM32.448 25.926H34.912V25.226H32.448V25.926ZM34.912 25.926C35.5906 25.926 36.1819 25.7554 36.6603 25.3902L36.2357 24.8338C35.9035 25.0873 35.4707 25.226 34.912 25.226V25.926ZM36.6603 25.3902C37.1434 25.0216 37.4355 24.5075 37.5449 23.8757L36.8551 23.7563C36.7725 24.2338 36.5633 24.5837 36.2357 24.8338L36.6603 25.3902ZM41.5341 26.68L41.3661 26.987L41.5341 26.68ZM40.2061 25.368L39.8991 25.536L39.9015 25.5404L40.2061 25.368ZM40.4301 20.712L40.1262 20.5383L40.1245 20.5414L40.4301 20.712ZM42.3501 18.76L42.1735 18.4578L42.1718 18.4588L42.3501 18.76ZM47.0701 18.52L46.9001 18.826L46.9045 18.8283L47.0701 18.52ZM48.4141 19.832L48.1095 20.0045L48.1135 20.0112L48.4141 19.832ZM48.1901 24.488L48.4923 24.6646L48.1901 24.488ZM46.2381 26.44L46.4118 26.7439L46.4147 26.7422L46.2381 26.44ZM45.3901 25.096L45.5871 25.3853L45.5884 25.3844L45.3901 25.096ZM46.5901 23.72L46.902 23.8789L46.9032 23.8765L46.5901 23.72ZM46.3981 20.184L46.1539 20.4347L46.1572 20.4379L46.3981 20.184ZM43.1661 20.104L43.369 20.3892L43.3701 20.3884L43.1661 20.104ZM42.0301 21.496L41.7137 21.3464L41.7125 21.349L42.0301 21.496ZM42.2061 25.016L41.9552 25.2601L41.9586 25.2635L42.2061 25.016ZM43.5021 26.794C42.8048 26.794 42.2083 26.6499 41.7021 26.373L41.3661 26.987C41.9906 27.3287 42.7061 27.494 43.5021 27.494V26.794ZM41.7021 26.373C41.1945 26.0952 40.7989 25.7047 40.5107 25.1956L39.9015 25.5404C40.2534 26.162 40.7431 26.6462 41.3661 26.987L41.7021 26.373ZM40.5132 25.2C40.2354 24.6924 40.0921 24.1061 40.0921 23.432H39.3921C39.3921 24.2086 39.5582 24.913 39.8991 25.536L40.5132 25.2ZM40.0921 23.432C40.0921 22.4964 40.3078 21.649 40.7357 20.8826L40.1245 20.5414C39.6351 21.4177 39.3921 22.3836 39.3921 23.432H40.0921ZM40.734 20.8856C41.1734 20.1168 41.7702 19.5101 42.5284 19.0612L42.1718 18.4588C41.3087 18.9699 40.6255 19.6646 40.1262 20.5384L40.734 20.8856ZM42.5267 19.0622C43.2915 18.6152 44.142 18.39 45.0861 18.39V17.69C44.0249 17.69 43.0514 17.9448 42.1735 18.4578L42.5267 19.0622ZM45.0861 18.39C45.7814 18.39 46.3827 18.5385 46.9002 18.826L47.2401 18.214C46.6055 17.8615 45.8842 17.69 45.0861 17.69V18.39ZM46.9045 18.8283C47.4227 19.1066 47.8223 19.497 48.1095 20.0044L48.7187 19.6596C48.3659 19.0363 47.8696 18.552 47.2357 18.2117L46.9045 18.8283ZM48.1135 20.0112C48.4075 20.5045 48.5601 21.0861 48.5601 21.768H49.2601C49.2601 20.9779 49.082 20.2689 48.7148 19.6528L48.1135 20.0112ZM48.5601 21.768C48.5601 22.7007 48.3353 23.546 47.8879 24.3114L48.4923 24.6646C49.005 23.7873 49.2601 22.8193 49.2601 21.768H48.5601ZM47.8879 24.3114C47.4383 25.0808 46.8309 25.6882 46.0615 26.1378L46.4147 26.7422C47.288 26.2318 47.9819 25.5379 48.4923 24.6646L47.8879 24.3114ZM46.0645 26.1361C45.2992 26.5734 44.4477 26.794 43.5021 26.794V27.494C44.5619 27.494 45.5344 27.2453 46.4118 26.7439L46.0645 26.1361ZM43.7261 25.958C44.4042 25.958 45.0275 25.7663 45.5871 25.3853L45.1931 24.8067C44.75 25.1084 44.264 25.258 43.7261 25.258V25.958ZM45.5884 25.3844C46.1495 24.9987 46.5881 24.495 46.902 23.8789L46.2783 23.5611C46.0162 24.0756 45.6547 24.4893 45.1918 24.8076L45.5884 25.3844ZM46.9032 23.8765C47.2157 23.2514 47.3721 22.5844 47.3721 21.88H46.6721C46.6721 22.4769 46.5405 23.0366 46.2771 23.5635L46.9032 23.8765ZM47.3721 21.88C47.3721 21.0767 47.1431 20.4083 46.639 19.9301L46.1572 20.4379C46.4852 20.749 46.6721 21.2113 46.6721 21.88H47.3721ZM46.6424 19.9333C46.1553 19.4587 45.5423 19.226 44.8301 19.226V19.926C45.3766 19.926 45.809 20.0986 46.1539 20.4347L46.6424 19.9333ZM44.8301 19.226C44.1402 19.226 43.5138 19.4238 42.9621 19.8196L43.3701 20.3884C43.7998 20.0802 44.2827 19.926 44.8301 19.926V19.226ZM42.9633 19.8188C42.4296 20.1983 42.014 20.7112 41.7137 21.3464L42.3465 21.6456C42.6009 21.1075 42.9427 20.6924 43.369 20.3892L42.9633 19.8188ZM41.7125 21.349C41.4236 21.973 41.2801 22.6421 41.2801 23.352H41.9801C41.9801 22.7393 42.1033 22.171 42.3477 21.643L41.7125 21.349ZM41.2801 23.352C41.2801 24.1296 41.4904 24.7823 41.9553 25.2601L42.457 24.7719C42.1538 24.4604 41.9801 24.0037 41.9801 23.352H41.2801ZM41.9586 25.2635C42.4264 25.7312 43.0257 25.958 43.7261 25.958V25.258C43.1892 25.258 42.7752 25.0901 42.4536 24.7685L41.9586 25.2635ZM50.9373 26.68L50.7692 26.987L50.9373 26.68ZM49.6092 25.368L49.3022 25.536L49.3047 25.5404L49.6092 25.368ZM49.8333 20.712L49.5294 20.5383L49.5277 20.5414L49.8333 20.712ZM51.7533 18.76L51.5766 18.4578L51.5749 18.4588L51.7533 18.76ZM56.4732 18.52L56.3033 18.826L56.3077 18.8283L56.4732 18.52ZM57.8172 19.832L57.5126 20.0045L57.5166 20.0112L57.8172 19.832ZM57.5933 24.488L57.8954 24.6646L57.5933 24.488ZM55.6413 26.44L55.8149 26.7439L55.8178 26.7422L55.6413 26.44ZM54.7933 25.096L54.9902 25.3853L54.9915 25.3844L54.7933 25.096ZM55.9932 23.72L56.3051 23.8789L56.3063 23.8765L55.9932 23.72ZM55.8013 20.184L55.557 20.4347L55.5604 20.4379L55.8013 20.184ZM52.5693 20.104L52.7721 20.3892L52.7733 20.3884L52.5693 20.104ZM51.4333 21.496L51.1168 21.3464L51.1156 21.349L51.4333 21.496ZM51.6092 25.016L51.3584 25.2601L51.3618 25.2635L51.6092 25.016ZM52.9053 26.794C52.2079 26.794 51.6114 26.6499 51.1053 26.373L50.7692 26.987C51.3937 27.3287 52.1092 27.494 52.9053 27.494V26.794ZM51.1053 26.373C50.5976 26.0952 50.202 25.7047 49.9138 25.1956L49.3047 25.5404C49.6565 26.162 50.1463 26.6462 50.7692 26.987L51.1053 26.373ZM49.9163 25.2C49.6385 24.6924 49.4952 24.1061 49.4952 23.432H48.7952C48.7952 24.2086 48.9613 24.913 49.3022 25.536L49.9163 25.2ZM49.4952 23.432C49.4952 22.4964 49.7109 21.649 50.1388 20.8826L49.5277 20.5414C49.0383 21.4177 48.7952 22.3836 48.7952 23.432H49.4952ZM50.1371 20.8856C50.5765 20.1168 51.1733 19.5101 51.9316 19.0612L51.5749 18.4588C50.7118 18.9699 50.0287 19.6646 49.5294 20.5384L50.1371 20.8856ZM51.9298 19.0622C52.6947 18.6152 53.5452 18.39 54.4893 18.39V17.69C53.428 17.69 52.4545 17.9448 51.5767 18.4578L51.9298 19.0622ZM54.4893 18.39C55.1845 18.39 55.7859 18.5385 56.3033 18.826L56.6432 18.214C56.0086 17.8615 55.2874 17.69 54.4893 17.69V18.39ZM56.3077 18.8283C56.8258 19.1066 57.2254 19.497 57.5127 20.0044L58.1218 19.6596C57.7691 19.0363 57.2727 18.552 56.6388 18.2117L56.3077 18.8283ZM57.5166 20.0112C57.8107 20.5045 57.9633 21.0861 57.9633 21.768H58.6632C58.6632 20.9779 58.4852 20.2689 58.1179 19.6528L57.5166 20.0112ZM57.9633 21.768C57.9633 22.7007 57.7384 23.546 57.2911 24.3114L57.8954 24.6646C58.4081 23.7873 58.6632 22.8193 58.6632 21.768H57.9633ZM57.2911 24.3114C56.8414 25.0808 56.234 25.6882 55.4647 26.1378L55.8178 26.7422C56.6911 26.2318 57.3851 25.5379 57.8954 24.6646L57.2911 24.3114ZM55.4676 26.1361C54.7023 26.5734 53.8508 26.794 52.9053 26.794V27.494C53.965 27.494 54.9375 27.2453 55.8149 26.7439L55.4676 26.1361ZM53.1292 25.958C53.8073 25.958 54.4307 25.7663 54.9902 25.3853L54.5963 24.8067C54.1532 25.1084 53.6672 25.258 53.1292 25.258V25.958ZM54.9915 25.3844C55.5526 24.9987 55.9912 24.495 56.3051 23.8789L55.6814 23.5611C55.4193 24.0756 55.0579 24.4893 54.595 24.8076L54.9915 25.3844ZM56.3063 23.8765C56.6189 23.2514 56.7752 22.5844 56.7752 21.88H56.0753C56.0753 22.4769 55.9436 23.0366 55.6802 23.5635L56.3063 23.8765ZM56.7752 21.88C56.7752 21.0767 56.5462 20.4083 56.0421 19.9301L55.5604 20.4379C55.8883 20.749 56.0753 21.2113 56.0753 21.88H56.7752ZM56.0455 19.9333C55.5584 19.4587 54.9455 19.226 54.2332 19.226V19.926C54.7797 19.926 55.2121 20.0986 55.557 20.4347L56.0455 19.9333ZM54.2332 19.226C53.5433 19.226 52.9169 19.4238 52.3652 19.8196L52.7733 20.3884C53.2029 20.0802 53.6859 19.926 54.2332 19.926V19.226ZM52.3664 19.8188C51.8327 20.1983 51.4171 20.7112 51.1168 21.3464L51.7497 21.6456C52.0041 21.1075 52.3458 20.6924 52.7721 20.3892L52.3664 19.8188ZM51.1156 21.349C50.8267 21.973 50.6833 22.6421 50.6833 23.352H51.3832C51.3832 22.7393 51.5064 22.171 51.7509 21.643L51.1156 21.349ZM50.6833 23.352C50.6833 24.1296 50.8935 24.7823 51.3584 25.2601L51.8601 24.7719C51.557 24.4604 51.3832 24.0037 51.3832 23.352H50.6833ZM51.3618 25.2635C51.8295 25.7312 52.4288 25.958 53.1292 25.958V25.258C52.5924 25.258 52.1784 25.0901 51.8567 24.7685L51.3618 25.2635ZM62.7084 22.6L62.4727 22.3413L62.2376 22.5554L62.4283 22.8098L62.7084 22.6ZM66.0044 27V27.35H66.7039L66.2845 26.7902L66.0044 27ZM63.5404 27L63.2514 27.1975L63.3557 27.35H63.5404V27ZM60.9484 23.208L61.2373 23.0105L60.7534 22.3025L60.6037 23.1469L60.9484 23.208ZM60.2764 27V27.35H60.5698L60.621 27.0611L60.2764 27ZM58.4524 27L58.1077 26.939L58.035 27.35H58.4524V27ZM60.5484 15.16V14.81H60.2549L60.2037 15.099L60.5484 15.16ZM62.3724 15.16L62.717 15.2211L62.7898 14.81H62.3724V15.16ZM61.1564 22.024L60.8117 21.9629L60.6192 23.0496L61.4028 22.2725L61.1564 22.024ZM65.0284 18.184V17.834H64.8843L64.7819 17.9355L65.0284 18.184ZM67.5564 18.184L67.7921 18.4427L68.4604 17.834H67.5564V18.184ZM62.4283 22.8098L65.7243 27.2098L66.2845 26.7902L62.9885 22.3902L62.4283 22.8098ZM66.0044 26.65H63.5404V27.35H66.0044V26.65ZM63.8293 26.8025L61.2373 23.0105L60.6594 23.4055L63.2514 27.1975L63.8293 26.8025ZM60.6037 23.1469L59.9317 26.9389L60.621 27.0611L61.293 23.2691L60.6037 23.1469ZM60.2764 26.65H58.4524V27.35H60.2764V26.65ZM58.797 27.061L60.893 15.221L60.2037 15.099L58.1077 26.939L58.797 27.061ZM60.5484 15.51H62.3724V14.81H60.5484V15.51ZM62.0277 15.0989L60.8117 21.9629L61.501 22.0851L62.717 15.2211L62.0277 15.0989ZM61.4028 22.2725L65.2748 18.4325L64.7819 17.9355L60.9099 21.7755L61.4028 22.2725ZM65.0284 18.534H67.5564V17.834H65.0284V18.534ZM67.3207 17.9253L62.4727 22.3413L62.9441 22.8587L67.7921 18.4427L67.3207 17.9253Z" fill="black" mask="url(#path-1-outside-1_37_31)"/>
<mask id="path-3-outside-2_37_31" maskUnits="userSpaceOnUse" x="32" y="25" width="40" height="14" fill="black">
<rect fill="white" x="32" y="25" width="40" height="14"/>
<path d="M40.4735 26.7827L39.0532 34.8688C38.8703 35.8695 38.4183 36.6604 37.6974 37.2414C36.9873 37.8225 36.1426 38.113 35.1634 38.113C34.3026 38.113 33.6194 37.8924 33.1137 37.4512C32.6187 36.9993 32.3712 36.3806 32.3712 35.5951C32.3712 35.3369 32.3927 35.0948 32.4358 34.8688H34.2919C34.2704 34.9657 34.2596 35.1056 34.2596 35.2885C34.2596 35.6543 34.3564 35.9448 34.5501 36.16C34.7546 36.3752 35.0558 36.4828 35.454 36.4828C35.9274 36.4828 36.3094 36.3376 36.5999 36.0471C36.9012 35.7458 37.1002 35.353 37.1971 34.8688L38.6174 26.7827H40.4735ZM46.0975 28.9616C47.2058 28.9616 48.0881 29.2736 48.7445 29.8977C49.4116 30.5218 49.7452 31.3611 49.7452 32.4156C49.7452 32.663 49.7183 32.9589 49.6645 33.3033C49.6214 33.54 49.5461 33.8305 49.4385 34.1748H42.6436C42.6328 34.2501 42.6274 34.3631 42.6274 34.5138C42.6274 35.1486 42.8211 35.6543 43.2085 36.0309C43.6066 36.4075 44.1231 36.5958 44.7579 36.5958C45.7586 36.5958 46.5279 36.1816 47.0659 35.353H49.0512C48.6423 36.1708 48.0397 36.8433 47.2435 37.3705C46.4472 37.887 45.5273 38.1453 44.4835 38.1453C43.7411 38.1453 43.0901 38 42.5306 37.7095C41.9711 37.419 41.5353 37.0047 41.2233 36.4667C40.9112 35.9179 40.7552 35.2777 40.7552 34.546C40.7552 34.234 40.7875 33.9004 40.852 33.5454C41.0134 32.6308 41.3416 31.8291 41.8366 31.1405C42.3315 30.4411 42.9449 29.9031 43.6765 29.5265C44.419 29.1499 45.226 28.9616 46.0975 28.9616ZM47.8245 32.8513C47.846 32.6577 47.8568 32.5178 47.8568 32.4317C47.8568 31.8399 47.6577 31.3718 47.2596 31.0275C46.8723 30.6832 46.3665 30.511 45.7425 30.511C45.0861 30.511 44.4943 30.7209 43.9671 31.1405C43.4398 31.5601 43.0794 32.1304 42.8857 32.8513H47.8245ZM50.0064 33.5131C50.1678 32.62 50.4906 31.8291 50.9748 31.1405C51.4698 30.4519 52.0724 29.9192 52.7825 29.5426C53.4927 29.1553 54.2405 28.9616 55.026 28.9616C55.607 28.9616 56.1558 29.0907 56.6723 29.349C57.1887 29.5964 57.5815 29.93 57.8505 30.3496L58.6091 26.0564H60.4652L58.3508 38H56.4947L56.7368 36.6604C56.3495 37.1015 55.8653 37.462 55.2842 37.7418C54.7139 38.0108 54.0845 38.1453 53.3958 38.1453C52.718 38.1453 52.1154 37.9946 51.5882 37.6933C51.0609 37.3921 50.6467 36.967 50.3454 36.4183C50.0549 35.8588 49.9096 35.2185 49.9096 34.4976C49.9096 34.1748 49.9419 33.8466 50.0064 33.5131ZM57.2856 33.5454C57.3286 33.3409 57.3501 33.1203 57.3501 32.8836C57.3501 32.1627 57.1349 31.5978 56.7045 31.1889C56.2849 30.7693 55.7577 30.5595 55.1228 30.5595C54.6494 30.5595 54.1867 30.6778 53.7348 30.9145C53.2829 31.1405 52.8901 31.4794 52.5566 31.9314C52.223 32.3725 52.0024 32.8998 51.8948 33.5131C51.8518 33.7175 51.8303 33.9381 51.8303 34.1748C51.8303 34.9065 52.0401 35.4875 52.4597 35.9179C52.8901 36.3376 53.4227 36.5474 54.0576 36.5474C54.531 36.5474 54.9937 36.429 55.4456 36.1923C55.8975 35.9556 56.2903 35.6113 56.6238 35.1594C56.9574 34.6967 57.178 34.1587 57.2856 33.5454ZM60.1381 33.5131C60.2995 32.62 60.6223 31.8291 61.1065 31.1405C61.6014 30.4519 62.204 29.9192 62.9142 29.5426C63.6243 29.1553 64.3721 28.9616 65.1576 28.9616C65.7387 28.9616 66.2874 29.0907 66.8039 29.349C67.3204 29.5964 67.7131 29.93 67.9821 30.3496L68.7407 26.0564H70.5968L68.4825 38H66.6264L66.8685 36.6604C66.4811 37.1015 65.9969 37.462 65.4159 37.7418C64.8456 38.0108 64.2161 38.1453 63.5275 38.1453C62.8496 38.1453 62.247 37.9946 61.7198 37.6933C61.1926 37.3921 60.7783 36.967 60.477 36.4183C60.1865 35.8588 60.0412 35.2185 60.0412 34.4976C60.0412 34.1748 60.0735 33.8466 60.1381 33.5131ZM67.4172 33.5454C67.4603 33.3409 67.4818 33.1203 67.4818 32.8836C67.4818 32.1627 67.2666 31.5978 66.8362 31.1889C66.4165 30.7693 65.8893 30.5595 65.2545 30.5595C64.781 30.5595 64.3183 30.6778 63.8664 30.9145C63.4145 31.1405 63.0218 31.4794 62.6882 31.9314C62.3546 32.3725 62.1341 32.8998 62.0265 33.5131C61.9834 33.7175 61.9619 33.9381 61.9619 34.1748C61.9619 34.9065 62.1717 35.4875 62.5914 35.9179C63.0218 36.3376 63.5544 36.5474 64.1892 36.5474C64.6627 36.5474 65.1253 36.429 65.5773 36.1923C66.0292 35.9556 66.4219 35.6113 66.7555 35.1594C67.089 34.6967 67.3096 34.1587 67.4172 33.5454Z"/>
</mask>
<path d="M40.4735 26.7827L39.0532 34.8688C38.8703 35.8695 38.4183 36.6604 37.6974 37.2414C36.9873 37.8225 36.1426 38.113 35.1634 38.113C34.3026 38.113 33.6194 37.8924 33.1137 37.4512C32.6187 36.9993 32.3712 36.3806 32.3712 35.5951C32.3712 35.3369 32.3927 35.0948 32.4358 34.8688H34.2919C34.2704 34.9657 34.2596 35.1056 34.2596 35.2885C34.2596 35.6543 34.3564 35.9448 34.5501 36.16C34.7546 36.3752 35.0558 36.4828 35.454 36.4828C35.9274 36.4828 36.3094 36.3376 36.5999 36.0471C36.9012 35.7458 37.1002 35.353 37.1971 34.8688L38.6174 26.7827H40.4735ZM46.0975 28.9616C47.2058 28.9616 48.0881 29.2736 48.7445 29.8977C49.4116 30.5218 49.7452 31.3611 49.7452 32.4156C49.7452 32.663 49.7183 32.9589 49.6645 33.3033C49.6214 33.54 49.5461 33.8305 49.4385 34.1748H42.6436C42.6328 34.2501 42.6274 34.3631 42.6274 34.5138C42.6274 35.1486 42.8211 35.6543 43.2085 36.0309C43.6066 36.4075 44.1231 36.5958 44.7579 36.5958C45.7586 36.5958 46.5279 36.1816 47.0659 35.353H49.0512C48.6423 36.1708 48.0397 36.8433 47.2435 37.3705C46.4472 37.887 45.5273 38.1453 44.4835 38.1453C43.7411 38.1453 43.0901 38 42.5306 37.7095C41.9711 37.419 41.5353 37.0047 41.2233 36.4667C40.9112 35.9179 40.7552 35.2777 40.7552 34.546C40.7552 34.234 40.7875 33.9004 40.852 33.5454C41.0134 32.6308 41.3416 31.8291 41.8366 31.1405C42.3315 30.4411 42.9449 29.9031 43.6765 29.5265C44.419 29.1499 45.226 28.9616 46.0975 28.9616ZM47.8245 32.8513C47.846 32.6577 47.8568 32.5178 47.8568 32.4317C47.8568 31.8399 47.6577 31.3718 47.2596 31.0275C46.8723 30.6832 46.3665 30.511 45.7425 30.511C45.0861 30.511 44.4943 30.7209 43.9671 31.1405C43.4398 31.5601 43.0794 32.1304 42.8857 32.8513H47.8245ZM50.0064 33.5131C50.1678 32.62 50.4906 31.8291 50.9748 31.1405C51.4698 30.4519 52.0724 29.9192 52.7825 29.5426C53.4927 29.1553 54.2405 28.9616 55.026 28.9616C55.607 28.9616 56.1558 29.0907 56.6723 29.349C57.1887 29.5964 57.5815 29.93 57.8505 30.3496L58.6091 26.0564H60.4652L58.3508 38H56.4947L56.7368 36.6604C56.3495 37.1015 55.8653 37.462 55.2842 37.7418C54.7139 38.0108 54.0845 38.1453 53.3958 38.1453C52.718 38.1453 52.1154 37.9946 51.5882 37.6933C51.0609 37.3921 50.6467 36.967 50.3454 36.4183C50.0549 35.8588 49.9096 35.2185 49.9096 34.4976C49.9096 34.1748 49.9419 33.8466 50.0064 33.5131ZM57.2856 33.5454C57.3286 33.3409 57.3501 33.1203 57.3501 32.8836C57.3501 32.1627 57.1349 31.5978 56.7045 31.1889C56.2849 30.7693 55.7577 30.5595 55.1228 30.5595C54.6494 30.5595 54.1867 30.6778 53.7348 30.9145C53.2829 31.1405 52.8901 31.4794 52.5566 31.9314C52.223 32.3725 52.0024 32.8998 51.8948 33.5131C51.8518 33.7175 51.8303 33.9381 51.8303 34.1748C51.8303 34.9065 52.0401 35.4875 52.4597 35.9179C52.8901 36.3376 53.4227 36.5474 54.0576 36.5474C54.531 36.5474 54.9937 36.429 55.4456 36.1923C55.8975 35.9556 56.2903 35.6113 56.6238 35.1594C56.9574 34.6967 57.178 34.1587 57.2856 33.5454ZM60.1381 33.5131C60.2995 32.62 60.6223 31.8291 61.1065 31.1405C61.6014 30.4519 62.204 29.9192 62.9142 29.5426C63.6243 29.1553 64.3721 28.9616 65.1576 28.9616C65.7387 28.9616 66.2874 29.0907 66.8039 29.349C67.3204 29.5964 67.7131 29.93 67.9821 30.3496L68.7407 26.0564H70.5968L68.4825 38H66.6264L66.8685 36.6604C66.4811 37.1015 65.9969 37.462 65.4159 37.7418C64.8456 38.0108 64.2161 38.1453 63.5275 38.1453C62.8496 38.1453 62.247 37.9946 61.7198 37.6933C61.1926 37.3921 60.7783 36.967 60.477 36.4183C60.1865 35.8588 60.0412 35.2185 60.0412 34.4976C60.0412 34.1748 60.0735 33.8466 60.1381 33.5131ZM67.4172 33.5454C67.4603 33.3409 67.4818 33.1203 67.4818 32.8836C67.4818 32.1627 67.2666 31.5978 66.8362 31.1889C66.4165 30.7693 65.8893 30.5595 65.2545 30.5595C64.781 30.5595 64.3183 30.6778 63.8664 30.9145C63.4145 31.1405 63.0218 31.4794 62.6882 31.9314C62.3546 32.3725 62.1341 32.8998 62.0265 33.5131C61.9834 33.7175 61.9619 33.9381 61.9619 34.1748C61.9619 34.9065 62.1717 35.4875 62.5914 35.9179C63.0218 36.3376 63.5544 36.5474 64.1892 36.5474C64.6627 36.5474 65.1253 36.429 65.5773 36.1923C66.0292 35.9556 66.4219 35.6113 66.7555 35.1594C67.089 34.6967 67.3096 34.1587 67.4172 33.5454Z" fill="black"/>
<path d="M40.4735 26.7827L40.8182 26.8432L40.8903 26.4327H40.4735V26.7827ZM39.0532 34.8688L39.3975 34.9318L39.3979 34.9294L39.0532 34.8688ZM37.6974 37.2414L37.4778 36.9689L37.4758 36.9705L37.6974 37.2414ZM33.1137 37.4512L32.8776 37.7098L32.8836 37.715L33.1137 37.4512ZM32.4358 34.8688V34.5188H32.1462L32.092 34.8034L32.4358 34.8688ZM34.2919 34.8688L34.6335 34.9448L34.7282 34.5188H34.2919V34.8688ZM34.5501 36.16L34.2899 36.3943L34.2964 36.4011L34.5501 36.16ZM36.5999 36.0471L36.8474 36.2945L36.5999 36.0471ZM37.1971 34.8688L37.5404 34.9375L37.5418 34.9294L37.1971 34.8688ZM38.6174 26.7827V26.4327H38.3235L38.2727 26.7221L38.6174 26.7827ZM40.1288 26.7221L38.7085 34.8083L39.3979 34.9294L40.8182 26.8432L40.1288 26.7221ZM38.7089 34.8059C38.5395 35.7328 38.1268 36.4459 37.4778 36.9689L37.9171 37.5139C38.7099 36.8749 39.2011 36.0062 39.3975 34.9318L38.7089 34.8059ZM37.4758 36.9705C36.8325 37.4968 36.0676 37.763 35.1634 37.763V38.463C36.2176 38.463 37.142 38.1481 37.9191 37.5123L37.4758 36.9705ZM35.1634 37.763C34.3627 37.763 33.7694 37.5588 33.3437 37.1875L32.8836 37.715C33.4694 38.226 34.2426 38.463 35.1634 38.463V37.763ZM33.3497 37.1928C32.9399 36.8187 32.7212 36.3008 32.7212 35.5951H32.0212C32.0212 36.4605 32.2975 37.18 32.8777 37.7097L33.3497 37.1928ZM32.7212 35.5951C32.7212 35.3562 32.7411 35.1363 32.7796 34.9343L32.092 34.8034C32.0443 35.0533 32.0212 35.3176 32.0212 35.5951H32.7212ZM32.4358 35.2188H34.2919V34.5188H32.4358V35.2188ZM33.9502 34.7929C33.9203 34.9274 33.9096 35.0976 33.9096 35.2885H34.6096C34.6096 35.1135 34.6204 35.004 34.6335 34.9448L33.9502 34.7929ZM33.9096 35.2885C33.9096 35.7172 34.0244 36.0991 34.29 36.3942L34.8103 35.9259C34.6885 35.7906 34.6096 35.5915 34.6096 35.2885H33.9096ZM34.2964 36.4011C34.5871 36.7072 34.9939 36.8328 35.454 36.8328V36.1328C35.1178 36.1328 34.922 36.0433 34.8039 35.919L34.2964 36.4011ZM35.454 36.8328C36.0049 36.8328 36.4811 36.6608 36.8474 36.2945L36.3524 35.7996C36.1376 36.0144 35.8499 36.1328 35.454 36.1328V36.8328ZM36.8474 36.2945C37.2049 35.937 37.4321 35.4784 37.5403 34.9375L36.8539 34.8002C36.7684 35.2277 36.5974 35.5546 36.3524 35.7996L36.8474 36.2945ZM37.5418 34.9294L38.9621 26.8432L38.2727 26.7221L36.8524 34.8083L37.5418 34.9294ZM38.6174 27.1327H40.4735V26.4327H38.6174V27.1327ZM48.7445 29.8977L48.5033 30.1514L48.5054 30.1533L48.7445 29.8977ZM49.6645 33.3033L50.0089 33.3659L50.0103 33.3573L49.6645 33.3033ZM49.4385 34.1748V34.5248H49.6958L49.7726 34.2792L49.4385 34.1748ZM42.6436 34.1748V33.8248H42.34L42.2971 34.1253L42.6436 34.1748ZM43.2085 36.0309L42.9645 36.2819L42.968 36.2852L43.2085 36.0309ZM47.0659 35.353V35.003H46.8759L46.7724 35.1624L47.0659 35.353ZM49.0512 35.353L49.3642 35.5096L49.6175 35.003H49.0512V35.353ZM47.2435 37.3705L47.4339 37.6642L47.4367 37.6624L47.2435 37.3705ZM42.5306 37.7095L42.6919 37.3989L42.5306 37.7095ZM41.2233 36.4667L40.919 36.6397L40.9205 36.6423L41.2233 36.4667ZM40.852 33.5454L41.1964 33.608L41.1967 33.6062L40.852 33.5454ZM41.8366 31.1405L42.1208 31.3448L42.1223 31.3427L41.8366 31.1405ZM43.6765 29.5265L43.5182 29.2144L43.5164 29.2153L43.6765 29.5265ZM47.8245 32.8513V33.2013H48.1378L48.1724 32.89L47.8245 32.8513ZM47.2596 31.0275L47.0271 31.2891L47.0307 31.2922L47.2596 31.0275ZM43.9671 31.1405L44.185 31.4143L43.9671 31.1405ZM42.8857 32.8513L42.5477 32.7605L42.4292 33.2013H42.8857V32.8513ZM46.0975 29.3116C47.1372 29.3116 47.9259 29.6024 48.5033 30.1514L48.9857 29.6441C48.2504 28.9449 47.2744 28.6116 46.0975 28.6116V29.3116ZM48.5054 30.1533C49.0906 30.7008 49.3952 31.4416 49.3952 32.4156H50.0952C50.0952 31.2806 49.7326 30.3428 48.9836 29.6421L48.5054 30.1533ZM49.3952 32.4156C49.3952 32.6393 49.3707 32.9162 49.3187 33.2492L50.0103 33.3573C50.0658 33.0017 50.0952 32.6868 50.0952 32.4156H49.3952ZM49.3201 33.2407C49.2806 33.4581 49.2097 33.7338 49.1044 34.0704L49.7726 34.2792C49.8826 33.9272 49.9623 33.6218 50.0088 33.3659L49.3201 33.2407ZM49.4385 33.8248H42.6436V34.5248H49.4385V33.8248ZM42.2971 34.1253C42.2827 34.2261 42.2774 34.3593 42.2774 34.5138H42.9774C42.9774 34.367 42.9829 34.2742 42.9901 34.2243L42.2971 34.1253ZM42.2774 34.5138C42.2774 35.2252 42.4975 35.8279 42.9645 36.2819L43.4525 35.78C43.1447 35.4808 42.9774 35.072 42.9774 34.5138H42.2774ZM42.968 36.2852C43.4413 36.733 44.0488 36.9458 44.7579 36.9458V36.2458C44.1973 36.2458 43.7719 36.0821 43.449 35.7767L42.968 36.2852ZM44.7579 36.9458C45.8753 36.9458 46.7559 36.4731 47.3595 35.5437L46.7724 35.1624C46.2999 35.89 45.6419 36.2458 44.7579 36.2458V36.9458ZM47.0659 35.703H49.0512V35.003H47.0659V35.703ZM48.7381 35.1965C48.3579 35.957 47.7978 36.5837 47.0502 37.0787L47.4367 37.6624C48.2817 37.1029 48.9267 36.3846 49.3642 35.5096L48.7381 35.1965ZM47.053 37.0769C46.3191 37.553 45.4667 37.7953 44.4835 37.7953V38.4953C45.5879 38.4953 46.5754 38.2211 47.4339 37.6642L47.053 37.0769ZM44.4835 37.7953C43.7873 37.7953 43.1934 37.6593 42.6919 37.3989L42.3693 38.0201C42.9868 38.3407 43.6949 38.4953 44.4835 38.4953V37.7953ZM42.6919 37.3989C42.1905 37.1385 41.8042 36.7707 41.526 36.2911L40.9205 36.6423C41.2664 37.2387 41.7516 37.6994 42.3693 38.0201L42.6919 37.3989ZM41.5275 36.2937C41.2499 35.8055 41.1052 35.2268 41.1052 34.546H40.4052C40.4052 35.3286 40.5725 36.0303 40.919 36.6397L41.5275 36.2937ZM41.1052 34.546C41.1052 34.258 41.135 33.9455 41.1964 33.608L40.5077 33.4827C40.4399 33.8554 40.4052 34.21 40.4052 34.546H41.1052ZM41.1967 33.6062C41.3499 32.7383 41.6593 31.9868 42.1208 31.3448L41.5524 30.9362C41.0239 31.6715 40.677 32.5232 40.5074 33.4845L41.1967 33.6062ZM42.1223 31.3427C42.5861 30.6872 43.1571 30.1875 43.8367 29.8377L43.5164 29.2153C42.7326 29.6187 42.0769 30.195 41.5509 30.9383L42.1223 31.3427ZM43.8349 29.8386C44.5259 29.4881 45.2783 29.3116 46.0975 29.3116V28.6116C45.1736 28.6116 44.312 28.8117 43.5182 29.2144L43.8349 29.8386ZM48.1724 32.89C48.194 32.6954 48.2068 32.5388 48.2068 32.4317H47.5068C47.5068 32.4968 47.4981 32.62 47.4767 32.8127L48.1724 32.89ZM48.2068 32.4317C48.2068 31.7524 47.9736 31.1823 47.4886 30.7628L47.0307 31.2922C47.3418 31.5614 47.5068 31.9274 47.5068 32.4317H48.2068ZM47.4921 30.7659C47.0282 30.3535 46.4339 30.161 45.7425 30.161V30.861C46.2992 30.861 46.7163 31.0129 47.0271 31.2891L47.4921 30.7659ZM45.7425 30.161C45.0047 30.161 44.3365 30.3991 43.7491 30.8667L44.185 31.4143C44.6521 31.0426 45.1675 30.861 45.7425 30.861V30.161ZM43.7491 30.8667C43.157 31.3379 42.7586 31.9755 42.5477 32.7605L43.2237 32.9422C43.4001 32.2853 43.7226 31.7824 44.185 31.4143L43.7491 30.8667ZM42.8857 33.2013H47.8245V32.5013H42.8857V33.2013ZM50.0064 33.5131L50.3501 33.5796L50.3509 33.5753L50.0064 33.5131ZM50.9748 31.1405L50.6906 30.9362L50.6885 30.9392L50.9748 31.1405ZM52.7825 29.5426L52.9465 29.8519L52.9501 29.8499L52.7825 29.5426ZM56.6723 29.349L56.5157 29.6621L56.521 29.6646L56.6723 29.349ZM57.8505 30.3496L57.5558 30.5385L58.0393 31.2927L58.1951 30.4105L57.8505 30.3496ZM58.6091 26.0564V25.7064H58.3155L58.2644 25.9955L58.6091 26.0564ZM60.4652 26.0564L60.8098 26.1174L60.8826 25.7064H60.4652V26.0564ZM58.3508 38V38.35H58.6443L58.6955 38.061L58.3508 38ZM56.4947 38L56.1503 37.9378L56.0758 38.35H56.4947V38ZM56.7368 36.6604L57.0812 36.7226L57.3054 35.4824L56.4738 36.4294L56.7368 36.6604ZM55.2842 37.7418L55.4335 38.0583L55.4361 38.0571L55.2842 37.7418ZM51.5882 37.6933L51.4145 37.9972L51.5882 37.6933ZM50.3454 36.4183L50.0347 36.5796L50.0386 36.5867L50.3454 36.4183ZM57.2856 33.5454L56.9429 33.4732L56.9408 33.4849L57.2856 33.5454ZM56.7045 31.1889L56.457 31.4365L56.4635 31.4427L56.7045 31.1889ZM53.7348 30.9145L53.8913 31.2276L53.8972 31.2246L53.7348 30.9145ZM52.5566 31.9314L52.8358 32.1425L52.8382 32.1392L52.5566 31.9314ZM51.8948 33.5131L52.2375 33.5852L52.2396 33.5736L51.8948 33.5131ZM52.4597 35.9179L52.209 36.1624L52.2154 36.1685L52.4597 35.9179ZM56.6238 35.1594L56.9055 35.3672L56.9078 35.364L56.6238 35.1594ZM50.3509 33.5753C50.5039 32.7283 50.8084 31.9857 51.2612 31.3418L50.6885 30.9392C50.1729 31.6726 49.8317 32.5117 49.662 33.4508L50.3509 33.5753ZM51.259 31.3448C51.7243 30.6974 52.2866 30.2018 52.9465 29.8519L52.6185 29.2334C51.8581 29.6367 51.2153 30.2063 50.6906 30.9362L51.259 31.3448ZM52.9501 29.8499C53.6105 29.4897 54.3009 29.3116 55.026 29.3116V28.6116C54.1801 28.6116 53.3749 28.8208 52.6149 29.2354L52.9501 29.8499ZM55.026 29.3116C55.553 29.3116 56.0482 29.4282 56.5157 29.662L56.8288 29.0359C56.2634 28.7532 55.661 28.6116 55.026 28.6116V29.3116ZM56.521 29.6646C56.9878 29.8882 57.3269 30.1814 57.5558 30.5385L58.1451 30.1608C57.8361 29.6786 57.3897 29.3046 56.8235 29.0333L56.521 29.6646ZM58.1951 30.4105L58.9537 26.1173L58.2644 25.9955L57.5058 30.2887L58.1951 30.4105ZM58.6091 26.4064H60.4652V25.7064H58.6091V26.4064ZM60.1205 25.9954L58.0062 37.939L58.6955 38.061L60.8098 26.1174L60.1205 25.9954ZM58.3508 37.65H56.4947V38.35H58.3508V37.65ZM56.8391 38.0622L57.0812 36.7226L56.3924 36.5981L56.1503 37.9378L56.8391 38.0622ZM56.4738 36.4294C56.1204 36.832 55.6753 37.165 55.1324 37.4264L55.4361 38.0571C56.0553 37.759 56.5785 37.3711 56.9998 36.8913L56.4738 36.4294ZM55.1349 37.4252C54.6155 37.6702 54.0377 37.7953 53.3958 37.7953V38.4953C54.1313 38.4953 54.8124 38.3513 55.4335 38.0583L55.1349 37.4252ZM53.3958 37.7953C52.7716 37.7953 52.2302 37.6571 51.7618 37.3895L51.4145 37.9972C52.0006 38.3321 52.6643 38.4953 53.3958 38.4953V37.7953ZM51.7618 37.3895C51.2924 37.1212 50.9234 36.7439 50.6522 36.2498L50.0386 36.5867C50.3699 37.1902 50.8295 37.6629 51.4145 37.9972L51.7618 37.3895ZM50.656 36.257C50.3949 35.754 50.2596 35.1705 50.2596 34.4976H49.5596C49.5596 35.2666 49.7149 35.9635 50.0348 36.5796L50.656 36.257ZM50.2596 34.4976C50.2596 34.1983 50.2895 33.8924 50.3501 33.5796L49.6628 33.4466C49.5942 33.8009 49.5596 34.1514 49.5596 34.4976H50.2596ZM57.6281 33.6175C57.6767 33.3864 57.7001 33.1414 57.7001 32.8836H57.0001C57.0001 33.0993 56.9805 33.2954 56.9431 33.4733L57.6281 33.6175ZM57.7001 32.8836C57.7001 32.0889 57.4601 31.424 56.9456 30.9352L56.4635 31.4427C56.8098 31.7716 57.0001 32.2365 57.0001 32.8836H57.7001ZM56.952 30.9414C56.4618 30.4513 55.8433 30.2095 55.1228 30.2095V30.9095C55.672 30.9095 56.108 31.0873 56.4571 31.4364L56.952 30.9414ZM55.1228 30.2095C54.5885 30.2095 54.0704 30.3436 53.5724 30.6045L53.8972 31.2246C54.303 31.012 54.7103 30.9095 55.1228 30.9095V30.2095ZM53.5783 30.6015C53.0716 30.8548 52.6376 31.2322 52.275 31.7235L52.8382 32.1392C53.1426 31.7267 53.4941 31.4262 53.8913 31.2276L53.5783 30.6015ZM52.2774 31.7203C51.9063 32.211 51.6661 32.7915 51.5501 33.4526L52.2396 33.5736C52.3388 33.008 52.5397 32.534 52.8357 32.1424L52.2774 31.7203ZM51.5523 33.441C51.5037 33.672 51.4803 33.917 51.4803 34.1748H52.1803C52.1803 33.9592 52.1999 33.763 52.2373 33.5852L51.5523 33.441ZM51.4803 34.1748C51.4803 34.9767 51.7124 35.6528 52.2091 36.1623L52.7103 35.6736C52.3677 35.3222 52.1803 34.8363 52.1803 34.1748H51.4803ZM52.2154 36.1685C52.7151 36.6558 53.3371 36.8974 54.0576 36.8974V36.1974C53.5084 36.1974 53.0651 36.0194 52.7041 35.6673L52.2154 36.1685ZM54.0576 36.8974C54.5919 36.8974 55.11 36.7632 55.608 36.5024L55.2832 35.8823C54.8774 36.0948 54.4701 36.1974 54.0576 36.1974V36.8974ZM55.608 36.5024C56.1115 36.2386 56.5436 35.8574 56.9054 35.3672L56.3422 34.9515C56.0369 35.3651 55.6836 35.6726 55.2832 35.8823L55.608 36.5024ZM56.9078 35.364C57.275 34.8547 57.5144 34.2664 57.6303 33.6058L56.9408 33.4849C56.8415 34.051 56.6398 34.5387 56.3399 34.9547L56.9078 35.364ZM60.1381 33.5131L60.4817 33.5796L60.4825 33.5753L60.1381 33.5131ZM61.1065 31.1405L60.8223 30.9362L60.8202 30.9392L61.1065 31.1405ZM62.9142 29.5426L63.0781 29.8519L63.0817 29.8499L62.9142 29.5426ZM66.8039 29.349L66.6473 29.6621L66.6526 29.6646L66.8039 29.349ZM67.9821 30.3496L67.6875 30.5385L68.1709 31.2927L68.3268 30.4105L67.9821 30.3496ZM68.7407 26.0564V25.7064H68.4471L68.396 25.9955L68.7407 26.0564ZM70.5968 26.0564L70.9414 26.1174L71.0142 25.7064H70.5968V26.0564ZM68.4825 38V38.35H68.7759L68.8271 38.061L68.4825 38ZM66.6264 38L66.2819 37.9378L66.2074 38.35H66.6264V38ZM66.8685 36.6604L67.2129 36.7226L67.437 35.4824L66.6054 36.4294L66.8685 36.6604ZM65.4159 37.7418L65.5652 38.0583L65.5677 38.0571L65.4159 37.7418ZM61.7198 37.6933L61.5461 37.9972L61.7198 37.6933ZM60.477 36.4183L60.1663 36.5796L60.1702 36.5867L60.477 36.4183ZM67.4172 33.5454L67.0745 33.4732L67.0725 33.4849L67.4172 33.5454ZM66.8362 31.1889L66.5886 31.4365L66.5951 31.4427L66.8362 31.1889ZM63.8664 30.9145L64.023 31.2276L64.0288 31.2246L63.8664 30.9145ZM62.6882 31.9314L62.9674 32.1425L62.9698 32.1392L62.6882 31.9314ZM62.0265 33.5131L62.3691 33.5852L62.3712 33.5736L62.0265 33.5131ZM62.5914 35.9179L62.3407 36.1624L62.347 36.1685L62.5914 35.9179ZM66.7555 35.1594L67.0371 35.3672L67.0394 35.364L66.7555 35.1594ZM60.4825 33.5753C60.6356 32.7283 60.9401 31.9857 61.3928 31.3418L60.8202 30.9392C60.3045 31.6726 59.9634 32.5117 59.7937 33.4508L60.4825 33.5753ZM61.3907 31.3448C61.856 30.6974 62.4182 30.2018 63.0781 29.8519L62.7502 29.2334C61.9898 29.6367 61.3469 30.2063 60.8223 30.9362L61.3907 31.3448ZM63.0817 29.8499C63.7421 29.4897 64.4325 29.3116 65.1576 29.3116V28.6116C64.3118 28.6116 63.5065 28.8208 62.7466 29.2354L63.0817 29.8499ZM65.1576 29.3116C65.6847 29.3116 66.1798 29.4282 66.6474 29.662L66.9604 29.0359C66.395 28.7532 65.7926 28.6116 65.1576 28.6116V29.3116ZM66.6526 29.6646C67.1194 29.8882 67.4585 30.1814 67.6875 30.5385L68.2768 30.1608C67.9677 29.6786 67.5213 29.3046 66.9551 29.0333L66.6526 29.6646ZM68.3268 30.4105L69.0854 26.1173L68.396 25.9955L67.6375 30.2887L68.3268 30.4105ZM68.7407 26.4064H70.5968V25.7064H68.7407V26.4064ZM70.2522 25.9954L68.1378 37.939L68.8271 38.061L70.9414 26.1174L70.2522 25.9954ZM68.4825 37.65H66.6264V38.35H68.4825V37.65ZM66.9708 38.0622L67.2129 36.7226L66.524 36.5981L66.2819 37.9378L66.9708 38.0622ZM66.6054 36.4294C66.252 36.832 65.8069 37.165 65.264 37.4264L65.5677 38.0571C66.1869 37.759 66.7102 37.3711 67.1315 36.8913L66.6054 36.4294ZM65.2665 37.4252C64.7471 37.6702 64.1693 37.7953 63.5275 37.7953V38.4953C64.2629 38.4953 64.944 38.3513 65.5652 38.0583L65.2665 37.4252ZM63.5275 37.7953C62.9033 37.7953 62.3618 37.6571 61.8934 37.3895L61.5461 37.9972C62.1322 38.3321 62.7959 38.4953 63.5275 38.4953V37.7953ZM61.8934 37.3895C61.424 37.1212 61.0551 36.7439 60.7838 36.2498L60.1702 36.5867C60.5015 37.1902 60.9611 37.6629 61.5461 37.9972L61.8934 37.3895ZM60.7876 36.257C60.5265 35.754 60.3912 35.1705 60.3912 34.4976H59.6912C59.6912 35.2666 59.8465 35.9635 60.1664 36.5796L60.7876 36.257ZM60.3912 34.4976C60.3912 34.1983 60.4212 33.8924 60.4817 33.5796L59.7944 33.4466C59.7259 33.8009 59.6912 34.1514 59.6912 34.4976H60.3912ZM67.7597 33.6175C67.8083 33.3864 67.8318 33.1414 67.8318 32.8836H67.1318C67.1318 33.0993 67.1122 33.2954 67.0747 33.4733L67.7597 33.6175ZM67.8318 32.8836C67.8318 32.0889 67.5917 31.424 67.0772 30.9352L66.5951 31.4427C66.9414 31.7716 67.1318 32.2365 67.1318 32.8836H67.8318ZM67.0837 30.9414C66.5935 30.4513 65.975 30.2095 65.2545 30.2095V30.9095C65.8036 30.9095 66.2396 31.0873 66.5887 31.4364L67.0837 30.9414ZM65.2545 30.2095C64.7201 30.2095 64.2021 30.3436 63.704 30.6045L64.0288 31.2246C64.4346 31.012 64.8419 30.9095 65.2545 30.9095V30.2095ZM63.7099 30.6015C63.2033 30.8548 62.7692 31.2322 62.4066 31.7235L62.9698 32.1392C63.2743 31.7267 63.6257 31.4262 64.0229 31.2276L63.7099 30.6015ZM62.409 31.7203C62.0379 32.211 61.7977 32.7915 61.6817 33.4526L62.3712 33.5736C62.4704 33.008 62.6713 32.534 62.9674 32.1424L62.409 31.7203ZM61.684 33.441C61.6353 33.672 61.6119 33.917 61.6119 34.1748H62.3119C62.3119 33.9592 62.3315 33.763 62.3689 33.5852L61.684 33.441ZM61.6119 34.1748C61.6119 34.9767 61.8441 35.6528 62.3408 36.1623L62.842 35.6736C62.4994 35.3222 62.3119 34.8363 62.3119 34.1748H61.6119ZM62.347 36.1685C62.8467 36.6558 63.4687 36.8974 64.1892 36.8974V36.1974C63.64 36.1974 63.1968 36.0194 62.8357 35.6673L62.347 36.1685ZM64.1892 36.8974C64.7236 36.8974 65.2416 36.7632 65.7397 36.5024L65.4148 35.8823C65.0091 36.0948 64.6018 36.1974 64.1892 36.1974V36.8974ZM65.7397 36.5024C66.2431 36.2386 66.6753 35.8574 67.0371 35.3672L66.4739 34.9515C66.1686 35.3651 65.8152 35.6726 65.4148 35.8823L65.7397 36.5024ZM67.0394 35.364C67.4066 34.8547 67.6461 34.2664 67.7619 33.6058L67.0725 33.4849C66.9732 34.051 66.7715 34.5387 66.4716 34.9547L67.0394 35.364Z" fill="black" mask="url(#path-3-outside-2_37_31)"/>
<path d="M35.9393 26.4171L38.112 26.4222L37.4922 29.9377L35.3716 29.5638L35.9393 26.4171Z" fill="#FF0000"/>
</svg>
