<svg width="41" height="35" viewBox="0 0 41 35" fill="none" xmlns="http://www.w3.org/2000/svg">
<mask id="path-1-outside-1_37_49" maskUnits="userSpaceOnUse" x="-1" y="5" width="40" height="14" fill="black">
<rect fill="white" x="-1" y="5" width="40" height="14"/>
<path d="M9.664 9.744C9.55733 10.384 9.296 10.9173 8.88 11.344C8.464 11.7707 7.952 12.0853 7.344 12.288C7.83467 12.3733 8.24 12.624 8.56 13.04C8.88 13.456 9.04 13.9467 9.04 14.512C9.04 14.6827 9.024 14.848 8.992 15.008C8.896 15.5733 8.66133 16.0853 8.288 16.544C7.91467 16.992 7.424 17.3493 6.816 17.616C6.21867 17.872 5.552 18 4.816 18H0.368L2.336 6.88H6.576C7.58933 6.88 8.36267 7.09867 8.896 7.536C9.44 7.97333 9.712 8.53867 9.712 9.232C9.712 9.392 9.696 9.56267 9.664 9.744ZM7.776 9.968C7.79733 9.81867 7.808 9.70667 7.808 9.632C7.808 9.216 7.664 8.89067 7.376 8.656C7.088 8.42133 6.68267 8.304 6.16 8.304H3.904L3.328 11.6H5.584C6.18133 11.6 6.672 11.456 7.056 11.168C7.45067 10.88 7.69067 10.48 7.776 9.968ZM7.2 14.816C7.22133 14.6453 7.232 14.5227 7.232 14.448C7.232 14.0107 7.072 13.664 6.752 13.408C6.432 13.152 6.00533 13.024 5.472 13.024H3.072L2.448 16.576H4.912C5.53067 16.576 6.04267 16.4213 6.448 16.112C6.85333 15.8027 7.104 15.3707 7.2 14.816ZM13.5021 18.144C12.7555 18.144 12.0995 17.9893 11.5341 17.68C10.9688 17.3707 10.5261 16.9333 10.2061 16.368C9.89679 15.8027 9.74212 15.1573 9.74212 14.432C9.74212 13.44 9.97146 12.5333 10.4301 11.712C10.8995 10.8907 11.5395 10.24 12.3501 9.76C13.1715 9.28 14.0835 9.04 15.0861 9.04C15.8328 9.04 16.4941 9.2 17.0701 9.52C17.6461 9.82933 18.0941 10.2667 18.4141 10.832C18.7448 11.3867 18.9101 12.032 18.9101 12.768C18.9101 13.76 18.6701 14.6667 18.1901 15.488C17.7101 16.3093 17.0595 16.96 16.2381 17.44C15.4168 17.9093 14.5048 18.144 13.5021 18.144ZM13.7261 16.608C14.3341 16.608 14.8888 16.4373 15.3901 16.096C15.9021 15.744 16.3021 15.2853 16.5901 14.72C16.8781 14.144 17.0221 13.5307 17.0221 12.88C17.0221 12.144 16.8141 11.5787 16.3981 11.184C15.9821 10.7787 15.4595 10.576 14.8301 10.576C14.2115 10.576 13.6568 10.752 13.1661 11.104C12.6861 11.4453 12.3075 11.9093 12.0301 12.496C11.7635 13.072 11.6301 13.6907 11.6301 14.352C11.6301 15.0667 11.8221 15.6213 12.2061 16.016C12.6008 16.4107 13.1075 16.608 13.7261 16.608ZM22.9052 18.144C22.1586 18.144 21.5026 17.9893 20.9372 17.68C20.3719 17.3707 19.9292 16.9333 19.6092 16.368C19.2999 15.8027 19.1452 15.1573 19.1452 14.432C19.1452 13.44 19.3746 12.5333 19.8332 11.712C20.3026 10.8907 20.9426 10.24 21.7532 9.76C22.5746 9.28 23.4866 9.04 24.4892 9.04C25.2359 9.04 25.8973 9.2 26.4732 9.52C27.0492 9.82933 27.4972 10.2667 27.8173 10.832C28.1479 11.3867 28.3133 12.032 28.3133 12.768C28.3133 13.76 28.0733 14.6667 27.5933 15.488C27.1133 16.3093 26.4626 16.96 25.6413 17.44C24.8199 17.9093 23.9079 18.144 22.9052 18.144ZM23.1293 16.608C23.7372 16.608 24.2919 16.4373 24.7933 16.096C25.3052 15.744 25.7052 15.2853 25.9932 14.72C26.2812 14.144 26.4253 13.5307 26.4253 12.88C26.4253 12.144 26.2173 11.5787 25.8012 11.184C25.3852 10.7787 24.8626 10.576 24.2332 10.576C23.6146 10.576 23.0599 10.752 22.5692 11.104C22.0892 11.4453 21.7106 11.9093 21.4332 12.496C21.1666 13.072 21.0332 13.6907 21.0332 14.352C21.0332 15.0667 21.2252 15.6213 21.6092 16.016C22.0039 16.4107 22.5106 16.608 23.1293 16.608ZM32.7084 13.6L36.0044 18H33.5404L30.9484 14.208L30.2764 18H28.4524L30.5484 6.16H32.3724L31.1564 13.024L35.0284 9.184H37.5564L32.7084 13.6Z"/>
</mask>
<path d="M9.664 9.744C9.55733 10.384 9.296 10.9173 8.88 11.344C8.464 11.7707 7.952 12.0853 7.344 12.288C7.83467 12.3733 8.24 12.624 8.56 13.04C8.88 13.456 9.04 13.9467 9.04 14.512C9.04 14.6827 9.024 14.848 8.992 15.008C8.896 15.5733 8.66133 16.0853 8.288 16.544C7.91467 16.992 7.424 17.3493 6.816 17.616C6.21867 17.872 5.552 18 4.816 18H0.368L2.336 6.88H6.576C7.58933 6.88 8.36267 7.09867 8.896 7.536C9.44 7.97333 9.712 8.53867 9.712 9.232C9.712 9.392 9.696 9.56267 9.664 9.744ZM7.776 9.968C7.79733 9.81867 7.808 9.70667 7.808 9.632C7.808 9.216 7.664 8.89067 7.376 8.656C7.088 8.42133 6.68267 8.304 6.16 8.304H3.904L3.328 11.6H5.584C6.18133 11.6 6.672 11.456 7.056 11.168C7.45067 10.88 7.69067 10.48 7.776 9.968ZM7.2 14.816C7.22133 14.6453 7.232 14.5227 7.232 14.448C7.232 14.0107 7.072 13.664 6.752 13.408C6.432 13.152 6.00533 13.024 5.472 13.024H3.072L2.448 16.576H4.912C5.53067 16.576 6.04267 16.4213 6.448 16.112C6.85333 15.8027 7.104 15.3707 7.2 14.816ZM13.5021 18.144C12.7555 18.144 12.0995 17.9893 11.5341 17.68C10.9688 17.3707 10.5261 16.9333 10.2061 16.368C9.89679 15.8027 9.74212 15.1573 9.74212 14.432C9.74212 13.44 9.97146 12.5333 10.4301 11.712C10.8995 10.8907 11.5395 10.24 12.3501 9.76C13.1715 9.28 14.0835 9.04 15.0861 9.04C15.8328 9.04 16.4941 9.2 17.0701 9.52C17.6461 9.82933 18.0941 10.2667 18.4141 10.832C18.7448 11.3867 18.9101 12.032 18.9101 12.768C18.9101 13.76 18.6701 14.6667 18.1901 15.488C17.7101 16.3093 17.0595 16.96 16.2381 17.44C15.4168 17.9093 14.5048 18.144 13.5021 18.144ZM13.7261 16.608C14.3341 16.608 14.8888 16.4373 15.3901 16.096C15.9021 15.744 16.3021 15.2853 16.5901 14.72C16.8781 14.144 17.0221 13.5307 17.0221 12.88C17.0221 12.144 16.8141 11.5787 16.3981 11.184C15.9821 10.7787 15.4595 10.576 14.8301 10.576C14.2115 10.576 13.6568 10.752 13.1661 11.104C12.6861 11.4453 12.3075 11.9093 12.0301 12.496C11.7635 13.072 11.6301 13.6907 11.6301 14.352C11.6301 15.0667 11.8221 15.6213 12.2061 16.016C12.6008 16.4107 13.1075 16.608 13.7261 16.608ZM22.9052 18.144C22.1586 18.144 21.5026 17.9893 20.9372 17.68C20.3719 17.3707 19.9292 16.9333 19.6092 16.368C19.2999 15.8027 19.1452 15.1573 19.1452 14.432C19.1452 13.44 19.3746 12.5333 19.8332 11.712C20.3026 10.8907 20.9426 10.24 21.7532 9.76C22.5746 9.28 23.4866 9.04 24.4892 9.04C25.2359 9.04 25.8973 9.2 26.4732 9.52C27.0492 9.82933 27.4972 10.2667 27.8173 10.832C28.1479 11.3867 28.3133 12.032 28.3133 12.768C28.3133 13.76 28.0733 14.6667 27.5933 15.488C27.1133 16.3093 26.4626 16.96 25.6413 17.44C24.8199 17.9093 23.9079 18.144 22.9052 18.144ZM23.1293 16.608C23.7372 16.608 24.2919 16.4373 24.7933 16.096C25.3052 15.744 25.7052 15.2853 25.9932 14.72C26.2812 14.144 26.4253 13.5307 26.4253 12.88C26.4253 12.144 26.2173 11.5787 25.8012 11.184C25.3852 10.7787 24.8626 10.576 24.2332 10.576C23.6146 10.576 23.0599 10.752 22.5692 11.104C22.0892 11.4453 21.7106 11.9093 21.4332 12.496C21.1666 13.072 21.0332 13.6907 21.0332 14.352C21.0332 15.0667 21.2252 15.6213 21.6092 16.016C22.0039 16.4107 22.5106 16.608 23.1293 16.608ZM32.7084 13.6L36.0044 18H33.5404L30.9484 14.208L30.2764 18H28.4524L30.5484 6.16H32.3724L31.1564 13.024L35.0284 9.184H37.5564L32.7084 13.6Z" fill="black"/>
<path d="M9.664 9.744L9.31931 9.68317L9.31876 9.68646L9.664 9.744ZM8.88 11.344L8.6294 11.0997L8.88 11.344ZM7.344 12.288L7.23332 11.956L7.28403 12.6328L7.344 12.288ZM8.56 13.04L8.83742 12.8266L8.56 13.04ZM8.992 15.008L8.64865 14.9393L8.64694 14.9494L8.992 15.008ZM8.288 16.544L8.5569 16.7681L8.55945 16.7649L8.288 16.544ZM6.816 17.616L6.95388 17.9377L6.95658 17.9365L6.816 17.616ZM0.368 18L0.0233558 17.939L-0.0493814 18.35H0.368V18ZM2.336 6.88V6.53H2.0425L1.99136 6.819L2.336 6.88ZM8.896 7.536L8.67406 7.80666L8.67671 7.80878L8.896 7.536ZM7.776 9.968L8.12133 10.0256L8.12248 10.0175L7.776 9.968ZM7.376 8.656L7.59709 8.38467L7.59709 8.38467L7.376 8.656ZM3.904 8.304V7.954H3.60986L3.55923 8.24375L3.904 8.304ZM3.328 11.6L2.98323 11.5397L2.91153 11.95H3.328V11.6ZM7.056 11.168L6.84967 10.8852L6.846 10.888L7.056 11.168ZM7.2 14.816L7.54487 14.8757L7.54628 14.8676L7.5473 14.8594L7.2 14.816ZM6.752 13.408L6.53336 13.6813L6.752 13.408ZM3.072 13.024V12.674H2.77813L2.72728 12.9634L3.072 13.024ZM2.448 16.576L2.10328 16.5154L2.03115 16.926H2.448V16.576ZM6.448 16.112L6.66034 16.3902L6.448 16.112ZM9.31876 9.68646C9.22275 10.2626 8.99108 10.7287 8.6294 11.0997L9.1306 11.5883C9.60092 11.106 9.89192 10.5054 10.0092 9.80154L9.31876 9.68646ZM8.6294 11.0997C8.25528 11.4834 7.79245 11.7696 7.23332 11.956L7.45468 12.62C8.11155 12.4011 8.67272 12.058 9.1306 11.5883L8.6294 11.0997ZM7.28403 12.6328C7.68334 12.7023 8.01289 12.9028 8.28258 13.2534L8.83742 12.8266C8.46712 12.3452 7.98599 12.0444 7.40397 11.9432L7.28403 12.6328ZM8.28258 13.2534C8.55179 13.6034 8.69 14.0175 8.69 14.512H9.39C9.39 13.8758 9.20821 13.3086 8.83742 12.8266L8.28258 13.2534ZM8.69 14.512C8.69 14.6607 8.67607 14.803 8.6488 14.9394L9.3352 15.0766C9.37193 14.893 9.39 14.7047 9.39 14.512H8.69ZM8.64694 14.9494C8.56138 15.4533 8.353 15.9097 8.01655 16.3231L8.55945 16.7649C8.96967 16.261 9.23062 15.6934 9.33706 15.0666L8.64694 14.9494ZM8.01912 16.3199C7.68503 16.7208 7.24067 17.0476 6.67542 17.2955L6.95658 17.9365C7.60733 17.6511 8.1443 17.2632 8.55688 16.7681L8.01912 16.3199ZM6.67813 17.2943C6.12977 17.5293 5.51087 17.65 4.816 17.65V18.35C5.59313 18.35 6.30756 18.2147 6.95387 17.9377L6.67813 17.2943ZM4.816 17.65H0.368V18.35H4.816V17.65ZM0.712644 18.061L2.68064 6.94099L1.99136 6.819L0.0233558 17.939L0.712644 18.061ZM2.336 7.23H6.576V6.53H2.336V7.23ZM6.576 7.23C7.54519 7.23 8.22683 7.4399 8.67407 7.80664L9.11793 7.26536C8.4985 6.75743 7.63347 6.53 6.576 6.53V7.23ZM8.67671 7.80878C9.13872 8.1802 9.362 8.64553 9.362 9.232H10.062C10.062 8.43181 9.74129 7.76646 9.1153 7.26322L8.67671 7.80878ZM9.362 9.232C9.362 9.36883 9.3483 9.51899 9.31933 9.68317L10.0087 9.80482C10.0437 9.60634 10.062 9.41517 10.062 9.232H9.362ZM8.12248 10.0175C8.1443 9.86476 8.158 9.73256 8.158 9.632H7.458C7.458 9.68077 7.45037 9.77257 7.42952 9.9185L8.12248 10.0175ZM8.158 9.632C8.158 9.12503 7.97711 8.69431 7.59709 8.38467L7.15491 8.92733C7.3509 9.08702 7.458 9.30697 7.458 9.632H8.158ZM7.59709 8.38467C7.22553 8.08192 6.73096 7.954 6.16 7.954V8.654C6.63437 8.654 6.95047 8.76075 7.15492 8.92733L7.59709 8.38467ZM6.16 7.954H3.904V8.654H6.16V7.954ZM3.55923 8.24375L2.98323 11.5397L3.67278 11.6603L4.24878 8.36425L3.55923 8.24375ZM3.328 11.95H5.584V11.25H3.328V11.95ZM5.584 11.95C6.23825 11.95 6.80792 11.7916 7.266 11.448L6.846 10.888C6.53608 11.1204 6.12442 11.25 5.584 11.25V11.95ZM7.26231 11.4507C7.73592 11.1051 8.02189 10.6217 8.12124 10.0255L7.43076 9.91046C7.35945 10.3383 7.16541 10.6549 6.84969 10.8853L7.26231 11.4507ZM7.5473 14.8594C7.56873 14.688 7.582 14.5464 7.582 14.448H6.882C6.882 14.4989 6.87394 14.6027 6.8527 14.7726L7.5473 14.8594ZM7.582 14.448C7.582 13.9126 7.37988 13.4621 6.97064 13.1347L6.53336 13.6813C6.76412 13.8659 6.882 14.1088 6.882 14.448H7.582ZM6.97064 13.1347C6.57202 12.8158 6.06062 12.674 5.472 12.674V13.374C5.95004 13.374 6.29198 13.4882 6.53336 13.6813L6.97064 13.1347ZM5.472 12.674H3.072V13.374H5.472V12.674ZM2.72728 12.9634L2.10328 16.5154L2.79272 16.6366L3.41672 13.0846L2.72728 12.9634ZM2.448 16.926H4.912V16.226H2.448V16.926ZM4.912 16.926C5.59059 16.926 6.18187 16.7554 6.66034 16.3902L6.23566 15.8338C5.90347 16.0873 5.47075 16.226 4.912 16.226V16.926ZM6.66034 16.3902C7.14335 16.0216 7.43552 15.5075 7.54487 14.8757L6.85513 14.7563C6.77248 15.2338 6.56332 15.5837 6.23566 15.8338L6.66034 16.3902ZM11.5341 17.68L11.3661 17.987L11.5341 17.68ZM10.2061 16.368L9.89905 16.536L9.90154 16.5404L10.2061 16.368ZM10.4301 11.712L10.1262 11.5383L10.1245 11.5414L10.4301 11.712ZM12.3501 9.76L12.1735 9.45781L12.1718 9.45883L12.3501 9.76ZM17.0701 9.52L16.9001 9.82599L16.9045 9.82835L17.0701 9.52ZM18.4141 10.832L18.1095 11.0045L18.1135 11.0112L18.4141 10.832ZM18.1901 15.488L18.4923 15.6646L18.1901 15.488ZM16.2381 17.44L16.4118 17.7439L16.4147 17.7422L16.2381 17.44ZM15.3901 16.096L15.5871 16.3853L15.5884 16.3844L15.3901 16.096ZM16.5901 14.72L16.902 14.8789L16.9032 14.8765L16.5901 14.72ZM16.3981 11.184L16.1539 11.4347L16.1572 11.4379L16.3981 11.184ZM13.1661 11.104L13.369 11.3892L13.3701 11.3884L13.1661 11.104ZM12.0301 12.496L11.7137 12.3464L11.7125 12.349L12.0301 12.496ZM12.2061 16.016L11.9552 16.2601L11.9586 16.2635L12.2061 16.016ZM13.5021 17.794C12.8048 17.794 12.2083 17.6499 11.7021 17.373L11.3661 17.987C11.9906 18.3287 12.7061 18.494 13.5021 18.494V17.794ZM11.7021 17.373C11.1945 17.0952 10.7989 16.7047 10.5107 16.1956L9.90154 16.5404C10.2534 17.162 10.7431 17.6462 11.3661 17.987L11.7021 17.373ZM10.5132 16.2C10.2354 15.6924 10.0921 15.1061 10.0921 14.432H9.39213C9.39213 15.2086 9.55818 15.913 9.89908 16.536L10.5132 16.2ZM10.0921 14.432C10.0921 13.4964 10.3078 12.649 10.7357 11.8826L10.1245 11.5414C9.63515 12.4177 9.39213 13.3836 9.39213 14.432H10.0921ZM10.734 11.8856C11.1734 11.1168 11.7702 10.5101 12.5284 10.0612L12.1718 9.45883C11.3087 9.96987 10.6255 10.6646 10.1262 11.5384L10.734 11.8856ZM12.5267 10.0622C13.2915 9.61521 14.142 9.39 15.0861 9.39V8.69C14.0249 8.69 13.0514 8.94479 12.1735 9.45782L12.5267 10.0622ZM15.0861 9.39C15.7814 9.39 16.3827 9.53851 16.9002 9.82595L17.2401 9.21404C16.6055 8.86149 15.8842 8.69 15.0861 8.69V9.39ZM16.9045 9.82835C17.4227 10.1066 17.8223 10.497 18.1095 11.0044L18.7187 10.6596C18.3659 10.0363 17.8696 9.55205 17.2357 9.21165L16.9045 9.82835ZM18.1135 11.0112C18.4075 11.5045 18.5601 12.0861 18.5601 12.768H19.2601C19.2601 11.9779 19.082 11.2689 18.7148 10.6528L18.1135 11.0112ZM18.5601 12.768C18.5601 13.7007 18.3353 14.546 17.8879 15.3114L18.4923 15.6646C19.005 14.7873 19.2601 13.8193 19.2601 12.768H18.5601ZM17.8879 15.3114C17.4383 16.0808 16.8309 16.6882 16.0615 17.1378L16.4147 17.7422C17.288 17.2318 17.9819 16.5379 18.4923 15.6646L17.8879 15.3114ZM16.0645 17.1361C15.2992 17.5734 14.4477 17.794 13.5021 17.794V18.494C14.5619 18.494 15.5344 18.2453 16.4118 17.7439L16.0645 17.1361ZM13.7261 16.958C14.4042 16.958 15.0275 16.7663 15.5871 16.3853L15.1931 15.8067C14.75 16.1084 14.264 16.258 13.7261 16.258V16.958ZM15.5884 16.3844C16.1495 15.9987 16.5881 15.495 16.902 14.8789L16.2783 14.5611C16.0162 15.0756 15.6547 15.4893 15.1918 15.8076L15.5884 16.3844ZM16.9032 14.8765C17.2157 14.2514 17.3721 13.5844 17.3721 12.88H16.6721C16.6721 13.4769 16.5405 14.0366 16.2771 14.5635L16.9032 14.8765ZM17.3721 12.88C17.3721 12.0767 17.1431 11.4083 16.639 10.9301L16.1572 11.4379C16.4852 11.749 16.6721 12.2113 16.6721 12.88H17.3721ZM16.6424 10.9333C16.1553 10.4587 15.5423 10.226 14.8301 10.226V10.926C15.3766 10.926 15.809 11.0986 16.1539 11.4347L16.6424 10.9333ZM14.8301 10.226C14.1402 10.226 13.5138 10.4238 12.9621 10.8196L13.3701 11.3884C13.7998 11.0802 14.2827 10.926 14.8301 10.926V10.226ZM12.9633 10.8188C12.4296 11.1983 12.014 11.7112 11.7137 12.3464L12.3465 12.6456C12.6009 12.1075 12.9427 11.6924 13.369 11.3892L12.9633 10.8188ZM11.7125 12.349C11.4236 12.973 11.2801 13.6421 11.2801 14.352H11.9801C11.9801 13.7393 12.1033 13.171 12.3477 12.643L11.7125 12.349ZM11.2801 14.352C11.2801 15.1296 11.4904 15.7823 11.9553 16.2601L12.457 15.7719C12.1538 15.4604 11.9801 15.0037 11.9801 14.352H11.2801ZM11.9586 16.2635C12.4264 16.7312 13.0257 16.958 13.7261 16.958V16.258C13.1892 16.258 12.7752 16.0901 12.4536 15.7685L11.9586 16.2635ZM20.9373 17.68L20.7692 17.987L20.9373 17.68ZM19.6092 16.368L19.3022 16.536L19.3047 16.5404L19.6092 16.368ZM19.8333 11.712L19.5294 11.5383L19.5277 11.5414L19.8333 11.712ZM21.7533 9.76L21.5766 9.45781L21.5749 9.45883L21.7533 9.76ZM26.4732 9.52L26.3033 9.82599L26.3077 9.82835L26.4732 9.52ZM27.8172 10.832L27.5126 11.0045L27.5166 11.0112L27.8172 10.832ZM27.5933 15.488L27.8954 15.6646L27.5933 15.488ZM25.6413 17.44L25.8149 17.7439L25.8178 17.7422L25.6413 17.44ZM24.7933 16.096L24.9902 16.3853L24.9915 16.3844L24.7933 16.096ZM25.9932 14.72L26.3051 14.8789L26.3063 14.8765L25.9932 14.72ZM25.8013 11.184L25.557 11.4347L25.5604 11.4379L25.8013 11.184ZM22.5693 11.104L22.7721 11.3892L22.7733 11.3884L22.5693 11.104ZM21.4333 12.496L21.1168 12.3464L21.1156 12.349L21.4333 12.496ZM21.6092 16.016L21.3584 16.2601L21.3618 16.2635L21.6092 16.016ZM22.9053 17.794C22.2079 17.794 21.6114 17.6499 21.1053 17.373L20.7692 17.987C21.3937 18.3287 22.1092 18.494 22.9053 18.494V17.794ZM21.1053 17.373C20.5976 17.0952 20.202 16.7047 19.9138 16.1956L19.3047 16.5404C19.6565 17.162 20.1463 17.6462 20.7692 17.987L21.1053 17.373ZM19.9163 16.2C19.6385 15.6924 19.4952 15.1061 19.4952 14.432H18.7952C18.7952 15.2086 18.9613 15.913 19.3022 16.536L19.9163 16.2ZM19.4952 14.432C19.4952 13.4964 19.7109 12.649 20.1388 11.8826L19.5277 11.5414C19.0383 12.4177 18.7952 13.3836 18.7952 14.432H19.4952ZM20.1371 11.8856C20.5765 11.1168 21.1733 10.5101 21.9316 10.0612L21.5749 9.45883C20.7118 9.96987 20.0287 10.6646 19.5294 11.5384L20.1371 11.8856ZM21.9298 10.0622C22.6947 9.61521 23.5452 9.39 24.4893 9.39V8.69C23.428 8.69 22.4545 8.94479 21.5767 9.45782L21.9298 10.0622ZM24.4893 9.39C25.1845 9.39 25.7859 9.53851 26.3033 9.82595L26.6432 9.21404C26.0086 8.86149 25.2874 8.69 24.4893 8.69V9.39ZM26.3077 9.82835C26.8258 10.1066 27.2254 10.497 27.5127 11.0044L28.1218 10.6596C27.7691 10.0363 27.2727 9.55205 26.6388 9.21165L26.3077 9.82835ZM27.5166 11.0112C27.8107 11.5045 27.9633 12.0861 27.9633 12.768H28.6632C28.6632 11.9779 28.4852 11.2689 28.1179 10.6528L27.5166 11.0112ZM27.9633 12.768C27.9633 13.7007 27.7384 14.546 27.2911 15.3114L27.8954 15.6646C28.4081 14.7873 28.6632 13.8193 28.6632 12.768H27.9633ZM27.2911 15.3114C26.8414 16.0808 26.234 16.6882 25.4647 17.1378L25.8178 17.7422C26.6911 17.2318 27.3851 16.5379 27.8954 15.6646L27.2911 15.3114ZM25.4676 17.1361C24.7023 17.5734 23.8508 17.794 22.9053 17.794V18.494C23.965 18.494 24.9375 18.2453 25.8149 17.7439L25.4676 17.1361ZM23.1292 16.958C23.8073 16.958 24.4307 16.7663 24.9902 16.3853L24.5963 15.8067C24.1532 16.1084 23.6672 16.258 23.1292 16.258V16.958ZM24.9915 16.3844C25.5526 15.9987 25.9912 15.495 26.3051 14.8789L25.6814 14.5611C25.4193 15.0756 25.0579 15.4893 24.595 15.8076L24.9915 16.3844ZM26.3063 14.8765C26.6189 14.2514 26.7752 13.5844 26.7752 12.88H26.0753C26.0753 13.4769 25.9436 14.0366 25.6802 14.5635L26.3063 14.8765ZM26.7752 12.88C26.7752 12.0767 26.5462 11.4083 26.0421 10.9301L25.5604 11.4379C25.8883 11.749 26.0753 12.2113 26.0753 12.88H26.7752ZM26.0455 10.9333C25.5584 10.4587 24.9455 10.226 24.2332 10.226V10.926C24.7797 10.926 25.2121 11.0986 25.557 11.4347L26.0455 10.9333ZM24.2332 10.226C23.5433 10.226 22.9169 10.4238 22.3652 10.8196L22.7733 11.3884C23.2029 11.0802 23.6859 10.926 24.2332 10.926V10.226ZM22.3664 10.8188C21.8327 11.1983 21.4171 11.7112 21.1168 12.3464L21.7497 12.6456C22.0041 12.1075 22.3458 11.6924 22.7721 11.3892L22.3664 10.8188ZM21.1156 12.349C20.8267 12.973 20.6833 13.6421 20.6833 14.352H21.3832C21.3832 13.7393 21.5064 13.171 21.7509 12.643L21.1156 12.349ZM20.6833 14.352C20.6833 15.1296 20.8935 15.7823 21.3584 16.2601L21.8601 15.7719C21.557 15.4604 21.3832 15.0037 21.3832 14.352H20.6833ZM21.3618 16.2635C21.8295 16.7312 22.4288 16.958 23.1292 16.958V16.258C22.5924 16.258 22.1784 16.0901 21.8567 15.7685L21.3618 16.2635ZM32.7084 13.6L32.4727 13.3413L32.2376 13.5554L32.4283 13.8098L32.7084 13.6ZM36.0044 18V18.35H36.7039L36.2845 17.7902L36.0044 18ZM33.5404 18L33.2514 18.1975L33.3557 18.35H33.5404V18ZM30.9484 14.208L31.2373 14.0105L30.7534 13.3025L30.6037 14.1469L30.9484 14.208ZM30.2764 18V18.35H30.5698L30.621 18.0611L30.2764 18ZM28.4524 18L28.1077 17.939L28.035 18.35H28.4524V18ZM30.5484 6.16V5.81H30.2549L30.2037 6.09899L30.5484 6.16ZM32.3724 6.16L32.717 6.22105L32.7898 5.81H32.3724V6.16ZM31.1564 13.024L30.8117 12.9629L30.6192 14.0496L31.4028 13.2725L31.1564 13.024ZM35.0284 9.184V8.834H34.8843L34.7819 8.93549L35.0284 9.184ZM37.5564 9.184L37.7921 9.44275L38.4604 8.834H37.5564V9.184ZM32.4283 13.8098L35.7243 18.2098L36.2845 17.7902L32.9885 13.3902L32.4283 13.8098ZM36.0044 17.65H33.5404V18.35H36.0044V17.65ZM33.8293 17.8025L31.2373 14.0105L30.6594 14.4055L33.2514 18.1975L33.8293 17.8025ZM30.6037 14.1469L29.9317 17.9389L30.621 18.0611L31.293 14.2691L30.6037 14.1469ZM30.2764 17.65H28.4524V18.35H30.2764V17.65ZM28.797 18.061L30.893 6.22101L30.2037 6.09899L28.1077 17.939L28.797 18.061ZM30.5484 6.51H32.3724V5.81H30.5484V6.51ZM32.0277 6.09895L30.8117 12.9629L31.501 13.0851L32.717 6.22105L32.0277 6.09895ZM31.4028 13.2725L35.2748 9.43251L34.7819 8.93549L30.9099 12.7755L31.4028 13.2725ZM35.0284 9.534H37.5564V8.834H35.0284V9.534ZM37.3207 8.92525L32.4727 13.3413L32.9441 13.8587L37.7921 9.44275L37.3207 8.92525Z" fill="black" mask="url(#path-1-outside-1_37_49)"/>
<mask id="path-3-outside-2_37_49" maskUnits="userSpaceOnUse" x="2" y="16" width="40" height="14" fill="black">
<rect fill="white" x="2" y="16" width="40" height="14"/>
<path d="M10.4735 17.7827L9.05318 25.8688C8.87026 26.8695 8.41834 27.6604 7.69742 28.2414C6.98726 28.8225 6.1426 29.113 5.16344 29.113C4.30264 29.113 3.61938 28.8924 3.11366 28.4512C2.6187 27.9993 2.37122 27.3806 2.37122 26.5951C2.37122 26.3369 2.39274 26.0948 2.43578 25.8688H4.29188C4.27036 25.9657 4.2596 26.1056 4.2596 26.2885C4.2596 26.6543 4.35644 26.9448 4.55012 27.16C4.75456 27.3752 5.05584 27.4828 5.45396 27.4828C5.9274 27.4828 6.30938 27.3376 6.5999 27.0471C6.90118 26.7458 7.10024 26.353 7.19708 25.8688L8.6174 17.7827H10.4735ZM16.0975 19.9616C17.2058 19.9616 18.0881 20.2736 18.7445 20.8977C19.4116 21.5218 19.7452 22.3611 19.7452 23.4156C19.7452 23.663 19.7183 23.9589 19.6645 24.3033C19.6214 24.54 19.5461 24.8305 19.4385 25.1748H12.6436C12.6328 25.2501 12.6274 25.3631 12.6274 25.5138C12.6274 26.1486 12.8211 26.6543 13.2085 27.0309C13.6066 27.4075 14.1231 27.5958 14.7579 27.5958C15.7586 27.5958 16.5279 27.1816 17.0659 26.353H19.0512C18.6423 27.1708 18.0397 27.8433 17.2435 28.3705C16.4472 28.887 15.5273 29.1453 14.4835 29.1453C13.7411 29.1453 13.0901 29 12.5306 28.7095C11.9711 28.419 11.5353 28.0047 11.2233 27.4667C10.9112 26.9179 10.7552 26.2777 10.7552 25.546C10.7552 25.234 10.7875 24.9004 10.852 24.5454C11.0134 23.6308 11.3416 22.8291 11.8366 22.1405C12.3315 21.4411 12.9449 20.9031 13.6765 20.5265C14.419 20.1499 15.226 19.9616 16.0975 19.9616ZM17.8245 23.8513C17.846 23.6577 17.8568 23.5178 17.8568 23.4317C17.8568 22.8399 17.6577 22.3718 17.2596 22.0275C16.8723 21.6832 16.3665 21.511 15.7425 21.511C15.0861 21.511 14.4943 21.7209 13.9671 22.1405C13.4398 22.5601 13.0794 23.1304 12.8857 23.8513H17.8245ZM20.0064 24.5131C20.1678 23.62 20.4906 22.8291 20.9748 22.1405C21.4698 21.4519 22.0724 20.9192 22.7825 20.5426C23.4927 20.1553 24.2405 19.9616 25.026 19.9616C25.607 19.9616 26.1558 20.0907 26.6723 20.349C27.1887 20.5964 27.5815 20.93 27.8505 21.3496L28.6091 17.0564H30.4652L28.3508 29H26.4947L26.7368 27.6604C26.3495 28.1015 25.8653 28.462 25.2842 28.7418C24.7139 29.0108 24.0845 29.1453 23.3958 29.1453C22.718 29.1453 22.1154 28.9946 21.5882 28.6933C21.0609 28.3921 20.6467 27.967 20.3454 27.4183C20.0549 26.8588 19.9096 26.2185 19.9096 25.4976C19.9096 25.1748 19.9419 24.8466 20.0064 24.5131ZM27.2856 24.5454C27.3286 24.3409 27.3501 24.1203 27.3501 23.8836C27.3501 23.1627 27.1349 22.5978 26.7045 22.1889C26.2849 21.7693 25.7577 21.5595 25.1228 21.5595C24.6494 21.5595 24.1867 21.6778 23.7348 21.9145C23.2829 22.1405 22.8901 22.4794 22.5566 22.9314C22.223 23.3725 22.0024 23.8998 21.8948 24.5131C21.8518 24.7175 21.8303 24.9381 21.8303 25.1748C21.8303 25.9065 22.0401 26.4875 22.4597 26.9179C22.8901 27.3376 23.4227 27.5474 24.0576 27.5474C24.531 27.5474 24.9937 27.429 25.4456 27.1923C25.8975 26.9556 26.2903 26.6113 26.6238 26.1594C26.9574 25.6967 27.178 25.1587 27.2856 24.5454ZM30.1381 24.5131C30.2995 23.62 30.6223 22.8291 31.1065 22.1405C31.6014 21.4519 32.204 20.9192 32.9142 20.5426C33.6243 20.1553 34.3721 19.9616 35.1576 19.9616C35.7387 19.9616 36.2874 20.0907 36.8039 20.349C37.3204 20.5964 37.7131 20.93 37.9821 21.3496L38.7407 17.0564H40.5968L38.4825 29H36.6264L36.8685 27.6604C36.4811 28.1015 35.9969 28.462 35.4159 28.7418C34.8456 29.0108 34.2161 29.1453 33.5275 29.1453C32.8496 29.1453 32.247 28.9946 31.7198 28.6933C31.1926 28.3921 30.7783 27.967 30.477 27.4183C30.1865 26.8588 30.0412 26.2185 30.0412 25.4976C30.0412 25.1748 30.0735 24.8466 30.1381 24.5131ZM37.4172 24.5454C37.4603 24.3409 37.4818 24.1203 37.4818 23.8836C37.4818 23.1627 37.2666 22.5978 36.8362 22.1889C36.4165 21.7693 35.8893 21.5595 35.2545 21.5595C34.781 21.5595 34.3183 21.6778 33.8664 21.9145C33.4145 22.1405 33.0218 22.4794 32.6882 22.9314C32.3546 23.3725 32.1341 23.8998 32.0265 24.5131C31.9834 24.7175 31.9619 24.9381 31.9619 25.1748C31.9619 25.9065 32.1717 26.4875 32.5914 26.9179C33.0218 27.3376 33.5544 27.5474 34.1892 27.5474C34.6627 27.5474 35.1253 27.429 35.5773 27.1923C36.0292 26.9556 36.4219 26.6113 36.7555 26.1594C37.089 25.6967 37.3096 25.1587 37.4172 24.5454Z"/>
</mask>
<path d="M10.4735 17.7827L9.05318 25.8688C8.87026 26.8695 8.41834 27.6604 7.69742 28.2414C6.98726 28.8225 6.1426 29.113 5.16344 29.113C4.30264 29.113 3.61938 28.8924 3.11366 28.4512C2.6187 27.9993 2.37122 27.3806 2.37122 26.5951C2.37122 26.3369 2.39274 26.0948 2.43578 25.8688H4.29188C4.27036 25.9657 4.2596 26.1056 4.2596 26.2885C4.2596 26.6543 4.35644 26.9448 4.55012 27.16C4.75456 27.3752 5.05584 27.4828 5.45396 27.4828C5.9274 27.4828 6.30938 27.3376 6.5999 27.0471C6.90118 26.7458 7.10024 26.353 7.19708 25.8688L8.6174 17.7827H10.4735ZM16.0975 19.9616C17.2058 19.9616 18.0881 20.2736 18.7445 20.8977C19.4116 21.5218 19.7452 22.3611 19.7452 23.4156C19.7452 23.663 19.7183 23.9589 19.6645 24.3033C19.6214 24.54 19.5461 24.8305 19.4385 25.1748H12.6436C12.6328 25.2501 12.6274 25.3631 12.6274 25.5138C12.6274 26.1486 12.8211 26.6543 13.2085 27.0309C13.6066 27.4075 14.1231 27.5958 14.7579 27.5958C15.7586 27.5958 16.5279 27.1816 17.0659 26.353H19.0512C18.6423 27.1708 18.0397 27.8433 17.2435 28.3705C16.4472 28.887 15.5273 29.1453 14.4835 29.1453C13.7411 29.1453 13.0901 29 12.5306 28.7095C11.9711 28.419 11.5353 28.0047 11.2233 27.4667C10.9112 26.9179 10.7552 26.2777 10.7552 25.546C10.7552 25.234 10.7875 24.9004 10.852 24.5454C11.0134 23.6308 11.3416 22.8291 11.8366 22.1405C12.3315 21.4411 12.9449 20.9031 13.6765 20.5265C14.419 20.1499 15.226 19.9616 16.0975 19.9616ZM17.8245 23.8513C17.846 23.6577 17.8568 23.5178 17.8568 23.4317C17.8568 22.8399 17.6577 22.3718 17.2596 22.0275C16.8723 21.6832 16.3665 21.511 15.7425 21.511C15.0861 21.511 14.4943 21.7209 13.9671 22.1405C13.4398 22.5601 13.0794 23.1304 12.8857 23.8513H17.8245ZM20.0064 24.5131C20.1678 23.62 20.4906 22.8291 20.9748 22.1405C21.4698 21.4519 22.0724 20.9192 22.7825 20.5426C23.4927 20.1553 24.2405 19.9616 25.026 19.9616C25.607 19.9616 26.1558 20.0907 26.6723 20.349C27.1887 20.5964 27.5815 20.93 27.8505 21.3496L28.6091 17.0564H30.4652L28.3508 29H26.4947L26.7368 27.6604C26.3495 28.1015 25.8653 28.462 25.2842 28.7418C24.7139 29.0108 24.0845 29.1453 23.3958 29.1453C22.718 29.1453 22.1154 28.9946 21.5882 28.6933C21.0609 28.3921 20.6467 27.967 20.3454 27.4183C20.0549 26.8588 19.9096 26.2185 19.9096 25.4976C19.9096 25.1748 19.9419 24.8466 20.0064 24.5131ZM27.2856 24.5454C27.3286 24.3409 27.3501 24.1203 27.3501 23.8836C27.3501 23.1627 27.1349 22.5978 26.7045 22.1889C26.2849 21.7693 25.7577 21.5595 25.1228 21.5595C24.6494 21.5595 24.1867 21.6778 23.7348 21.9145C23.2829 22.1405 22.8901 22.4794 22.5566 22.9314C22.223 23.3725 22.0024 23.8998 21.8948 24.5131C21.8518 24.7175 21.8303 24.9381 21.8303 25.1748C21.8303 25.9065 22.0401 26.4875 22.4597 26.9179C22.8901 27.3376 23.4227 27.5474 24.0576 27.5474C24.531 27.5474 24.9937 27.429 25.4456 27.1923C25.8975 26.9556 26.2903 26.6113 26.6238 26.1594C26.9574 25.6967 27.178 25.1587 27.2856 24.5454ZM30.1381 24.5131C30.2995 23.62 30.6223 22.8291 31.1065 22.1405C31.6014 21.4519 32.204 20.9192 32.9142 20.5426C33.6243 20.1553 34.3721 19.9616 35.1576 19.9616C35.7387 19.9616 36.2874 20.0907 36.8039 20.349C37.3204 20.5964 37.7131 20.93 37.9821 21.3496L38.7407 17.0564H40.5968L38.4825 29H36.6264L36.8685 27.6604C36.4811 28.1015 35.9969 28.462 35.4159 28.7418C34.8456 29.0108 34.2161 29.1453 33.5275 29.1453C32.8496 29.1453 32.247 28.9946 31.7198 28.6933C31.1926 28.3921 30.7783 27.967 30.477 27.4183C30.1865 26.8588 30.0412 26.2185 30.0412 25.4976C30.0412 25.1748 30.0735 24.8466 30.1381 24.5131ZM37.4172 24.5454C37.4603 24.3409 37.4818 24.1203 37.4818 23.8836C37.4818 23.1627 37.2666 22.5978 36.8362 22.1889C36.4165 21.7693 35.8893 21.5595 35.2545 21.5595C34.781 21.5595 34.3183 21.6778 33.8664 21.9145C33.4145 22.1405 33.0218 22.4794 32.6882 22.9314C32.3546 23.3725 32.1341 23.8998 32.0265 24.5131C31.9834 24.7175 31.9619 24.9381 31.9619 25.1748C31.9619 25.9065 32.1717 26.4875 32.5914 26.9179C33.0218 27.3376 33.5544 27.5474 34.1892 27.5474C34.6627 27.5474 35.1253 27.429 35.5773 27.1923C36.0292 26.9556 36.4219 26.6113 36.7555 26.1594C37.089 25.6967 37.3096 25.1587 37.4172 24.5454Z" fill="black"/>
<path d="M10.4735 17.7827L10.8182 17.8432L10.8903 17.4327H10.4735V17.7827ZM9.05318 25.8688L9.39748 25.9318L9.3979 25.9294L9.05318 25.8688ZM7.69742 28.2414L7.47778 27.9689L7.47579 27.9705L7.69742 28.2414ZM3.11366 28.4512L2.87761 28.7098L2.88358 28.715L3.11366 28.4512ZM2.43578 25.8688V25.5188H2.14615L2.09196 25.8034L2.43578 25.8688ZM4.29188 25.8688L4.63355 25.9448L4.7282 25.5188H4.29188V25.8688ZM4.55012 27.16L4.28987 27.3943L4.29637 27.4011L4.55012 27.16ZM6.5999 27.0471L6.84739 27.2945L6.5999 27.0471ZM7.19708 25.8688L7.54038 25.9375L7.5418 25.9294L7.19708 25.8688ZM8.6174 17.7827V17.4327H8.32352L8.27268 17.7221L8.6174 17.7827ZM10.1288 17.7221L8.70846 25.8083L9.3979 25.9294L10.8182 17.8432L10.1288 17.7221ZM8.70888 25.8059C8.53945 26.7328 8.12676 27.4459 7.47779 27.9689L7.91705 28.5139C8.70992 27.8749 9.20107 27.0062 9.39747 25.9318L8.70888 25.8059ZM7.47579 27.9705C6.83253 28.4968 6.06764 28.763 5.16344 28.763V29.463C6.21756 29.463 7.14199 29.1481 7.91905 28.5123L7.47579 27.9705ZM5.16344 28.763C4.3627 28.763 3.76937 28.5588 3.34374 28.1875L2.88358 28.715C3.46939 29.226 4.24258 29.463 5.16344 29.463V28.763ZM3.34965 28.1928C2.93995 27.8187 2.72122 27.3008 2.72122 26.5951H2.02122C2.02122 27.4605 2.29745 28.18 2.87767 28.7097L3.34965 28.1928ZM2.72122 26.5951C2.72122 26.3562 2.74113 26.1363 2.7796 25.9343L2.09196 25.8034C2.04435 26.0533 2.02122 26.3176 2.02122 26.5951H2.72122ZM2.43578 26.2188H4.29188V25.5188H2.43578V26.2188ZM3.95021 25.7929C3.92033 25.9274 3.9096 26.0976 3.9096 26.2885H4.6096C4.6096 26.1135 4.62039 26.004 4.63355 25.9448L3.95021 25.7929ZM3.9096 26.2885C3.9096 26.7172 4.02439 27.0991 4.28997 27.3942L4.81027 26.9259C4.68849 26.7906 4.6096 26.5915 4.6096 26.2885H3.9096ZM4.29637 27.4011C4.58714 27.7072 4.99393 27.8328 5.45396 27.8328V27.1328C5.11775 27.1328 4.92198 27.0433 4.80387 26.919L4.29637 27.4011ZM5.45396 27.8328C6.0049 27.8328 6.48113 27.6608 6.84739 27.2945L6.35241 26.7996C6.13763 27.0144 5.8499 27.1328 5.45396 27.1328V27.8328ZM6.84739 27.2945C7.20493 26.937 7.4321 26.4784 7.54028 25.9375L6.85388 25.8002C6.76838 26.2277 6.59743 26.5546 6.35241 26.7996L6.84739 27.2945ZM7.5418 25.9294L8.96212 17.8432L8.27268 17.7221L6.85236 25.8083L7.5418 25.9294ZM8.6174 18.1327H10.4735V17.4327H8.6174V18.1327ZM18.7445 20.8977L18.5033 21.1514L18.5054 21.1533L18.7445 20.8977ZM19.6645 24.3033L20.0089 24.3659L20.0103 24.3573L19.6645 24.3033ZM19.4385 25.1748V25.5248H19.6958L19.7726 25.2792L19.4385 25.1748ZM12.6436 25.1748V24.8248H12.34L12.2971 25.1253L12.6436 25.1748ZM13.2085 27.0309L12.9645 27.2819L12.968 27.2852L13.2085 27.0309ZM17.0659 26.353V26.003H16.8759L16.7724 26.1624L17.0659 26.353ZM19.0512 26.353L19.3642 26.5096L19.6175 26.003H19.0512V26.353ZM17.2435 28.3705L17.4339 28.6642L17.4367 28.6624L17.2435 28.3705ZM12.5306 28.7095L12.6919 28.3989L12.5306 28.7095ZM11.2233 27.4667L10.919 27.6397L10.9205 27.6423L11.2233 27.4667ZM10.852 24.5454L11.1964 24.608L11.1967 24.6062L10.852 24.5454ZM11.8366 22.1405L12.1208 22.3448L12.1223 22.3427L11.8366 22.1405ZM13.6765 20.5265L13.5182 20.2144L13.5164 20.2153L13.6765 20.5265ZM17.8245 23.8513V24.2013H18.1378L18.1724 23.89L17.8245 23.8513ZM17.2596 22.0275L17.0271 22.2891L17.0307 22.2922L17.2596 22.0275ZM13.9671 22.1405L14.185 22.4143L13.9671 22.1405ZM12.8857 23.8513L12.5477 23.7605L12.4292 24.2013H12.8857V23.8513ZM16.0975 20.3116C17.1372 20.3116 17.9259 20.6024 18.5033 21.1514L18.9857 20.6441C18.2504 19.9449 17.2744 19.6116 16.0975 19.6116V20.3116ZM18.5054 21.1533C19.0906 21.7008 19.3952 22.4416 19.3952 23.4156H20.0952C20.0952 22.2806 19.7326 21.3428 18.9836 20.6421L18.5054 21.1533ZM19.3952 23.4156C19.3952 23.6393 19.3707 23.9162 19.3187 24.2492L20.0103 24.3573C20.0658 24.0017 20.0952 23.6868 20.0952 23.4156H19.3952ZM19.3201 24.2407C19.2806 24.4581 19.2097 24.7338 19.1044 25.0704L19.7726 25.2792C19.8826 24.9272 19.9623 24.6218 20.0088 24.3659L19.3201 24.2407ZM19.4385 24.8248H12.6436V25.5248H19.4385V24.8248ZM12.2971 25.1253C12.2827 25.2261 12.2774 25.3593 12.2774 25.5138H12.9774C12.9774 25.367 12.9829 25.2742 12.9901 25.2243L12.2971 25.1253ZM12.2774 25.5138C12.2774 26.2252 12.4975 26.8279 12.9645 27.2819L13.4525 26.78C13.1447 26.4808 12.9774 26.072 12.9774 25.5138H12.2774ZM12.968 27.2852C13.4413 27.733 14.0488 27.9458 14.7579 27.9458V27.2458C14.1973 27.2458 13.7719 27.0821 13.449 26.7767L12.968 27.2852ZM14.7579 27.9458C15.8753 27.9458 16.7559 27.4731 17.3595 26.5437L16.7724 26.1624C16.2999 26.89 15.6419 27.2458 14.7579 27.2458V27.9458ZM17.0659 26.703H19.0512V26.003H17.0659V26.703ZM18.7381 26.1965C18.3579 26.957 17.7978 27.5837 17.0502 28.0787L17.4367 28.6624C18.2817 28.1029 18.9267 27.3846 19.3642 26.5096L18.7381 26.1965ZM17.053 28.0769C16.3191 28.553 15.4667 28.7953 14.4835 28.7953V29.4953C15.5879 29.4953 16.5754 29.2211 17.4339 28.6642L17.053 28.0769ZM14.4835 28.7953C13.7873 28.7953 13.1934 28.6593 12.6919 28.3989L12.3693 29.0201C12.9868 29.3407 13.6949 29.4953 14.4835 29.4953V28.7953ZM12.6919 28.3989C12.1905 28.1385 11.8042 27.7707 11.526 27.2911L10.9205 27.6423C11.2664 28.2387 11.7516 28.6994 12.3693 29.0201L12.6919 28.3989ZM11.5275 27.2937C11.2499 26.8055 11.1052 26.2268 11.1052 25.546H10.4052C10.4052 26.3286 10.5725 27.0303 10.919 27.6397L11.5275 27.2937ZM11.1052 25.546C11.1052 25.258 11.135 24.9455 11.1964 24.608L10.5077 24.4827C10.4399 24.8554 10.4052 25.21 10.4052 25.546H11.1052ZM11.1967 24.6062C11.3499 23.7383 11.6593 22.9868 12.1208 22.3448L11.5524 21.9362C11.0239 22.6715 10.677 23.5232 10.5074 24.4845L11.1967 24.6062ZM12.1223 22.3427C12.5861 21.6872 13.1571 21.1875 13.8367 20.8377L13.5164 20.2153C12.7326 20.6187 12.0769 21.195 11.5509 21.9383L12.1223 22.3427ZM13.8349 20.8386C14.5259 20.4881 15.2783 20.3116 16.0975 20.3116V19.6116C15.1736 19.6116 14.312 19.8117 13.5182 20.2144L13.8349 20.8386ZM18.1724 23.89C18.194 23.6954 18.2068 23.5388 18.2068 23.4317H17.5068C17.5068 23.4968 17.4981 23.62 17.4767 23.8127L18.1724 23.89ZM18.2068 23.4317C18.2068 22.7524 17.9736 22.1823 17.4886 21.7628L17.0307 22.2922C17.3418 22.5614 17.5068 22.9274 17.5068 23.4317H18.2068ZM17.4921 21.7659C17.0282 21.3535 16.4339 21.161 15.7425 21.161V21.861C16.2992 21.861 16.7163 22.0129 17.0271 22.2891L17.4921 21.7659ZM15.7425 21.161C15.0047 21.161 14.3365 21.3991 13.7491 21.8667L14.185 22.4143C14.6521 22.0426 15.1675 21.861 15.7425 21.861V21.161ZM13.7491 21.8667C13.157 22.3379 12.7586 22.9755 12.5477 23.7605L13.2237 23.9422C13.4001 23.2853 13.7226 22.7824 14.185 22.4143L13.7491 21.8667ZM12.8857 24.2013H17.8245V23.5013H12.8857V24.2013ZM20.0064 24.5131L20.3501 24.5796L20.3509 24.5753L20.0064 24.5131ZM20.9748 22.1405L20.6906 21.9362L20.6885 21.9392L20.9748 22.1405ZM22.7825 20.5426L22.9465 20.8519L22.9501 20.8499L22.7825 20.5426ZM26.6723 20.349L26.5157 20.6621L26.521 20.6646L26.6723 20.349ZM27.8505 21.3496L27.5558 21.5385L28.0393 22.2927L28.1951 21.4105L27.8505 21.3496ZM28.6091 17.0564V16.7064H28.3155L28.2644 16.9955L28.6091 17.0564ZM30.4652 17.0564L30.8098 17.1174L30.8826 16.7064H30.4652V17.0564ZM28.3508 29V29.35H28.6443L28.6955 29.061L28.3508 29ZM26.4947 29L26.1503 28.9378L26.0758 29.35H26.4947V29ZM26.7368 27.6604L27.0812 27.7226L27.3054 26.4824L26.4738 27.4294L26.7368 27.6604ZM25.2842 28.7418L25.4335 29.0583L25.4361 29.0571L25.2842 28.7418ZM21.5882 28.6933L21.4145 28.9972L21.5882 28.6933ZM20.3454 27.4183L20.0347 27.5796L20.0386 27.5867L20.3454 27.4183ZM27.2856 24.5454L26.9429 24.4732L26.9408 24.4849L27.2856 24.5454ZM26.7045 22.1889L26.457 22.4365L26.4635 22.4427L26.7045 22.1889ZM23.7348 21.9145L23.8913 22.2276L23.8972 22.2246L23.7348 21.9145ZM22.5566 22.9314L22.8358 23.1425L22.8382 23.1392L22.5566 22.9314ZM21.8948 24.5131L22.2375 24.5852L22.2396 24.5736L21.8948 24.5131ZM22.4597 26.9179L22.209 27.1624L22.2154 27.1685L22.4597 26.9179ZM26.6238 26.1594L26.9055 26.3672L26.9078 26.364L26.6238 26.1594ZM20.3509 24.5753C20.5039 23.7283 20.8084 22.9857 21.2612 22.3418L20.6885 21.9392C20.1729 22.6726 19.8317 23.5117 19.662 24.4508L20.3509 24.5753ZM21.259 22.3448C21.7243 21.6974 22.2866 21.2018 22.9465 20.8519L22.6185 20.2334C21.8581 20.6367 21.2153 21.2063 20.6906 21.9362L21.259 22.3448ZM22.9501 20.8499C23.6105 20.4897 24.3009 20.3116 25.026 20.3116V19.6116C24.1801 19.6116 23.3749 19.8208 22.6149 20.2354L22.9501 20.8499ZM25.026 20.3116C25.553 20.3116 26.0482 20.4282 26.5157 20.662L26.8288 20.0359C26.2634 19.7532 25.661 19.6116 25.026 19.6116V20.3116ZM26.521 20.6646C26.9878 20.8882 27.3269 21.1814 27.5558 21.5385L28.1451 21.1608C27.8361 20.6786 27.3897 20.3046 26.8235 20.0333L26.521 20.6646ZM28.1951 21.4105L28.9537 17.1173L28.2644 16.9955L27.5058 21.2887L28.1951 21.4105ZM28.6091 17.4064H30.4652V16.7064H28.6091V17.4064ZM30.1205 16.9954L28.0062 28.939L28.6955 29.061L30.8098 17.1174L30.1205 16.9954ZM28.3508 28.65H26.4947V29.35H28.3508V28.65ZM26.8391 29.0622L27.0812 27.7226L26.3924 27.5981L26.1503 28.9378L26.8391 29.0622ZM26.4738 27.4294C26.1204 27.832 25.6753 28.165 25.1324 28.4264L25.4361 29.0571C26.0553 28.759 26.5785 28.3711 26.9998 27.8913L26.4738 27.4294ZM25.1349 28.4252C24.6155 28.6702 24.0377 28.7953 23.3958 28.7953V29.4953C24.1313 29.4953 24.8124 29.3513 25.4335 29.0583L25.1349 28.4252ZM23.3958 28.7953C22.7716 28.7953 22.2302 28.6571 21.7618 28.3895L21.4145 28.9972C22.0006 29.3321 22.6643 29.4953 23.3958 29.4953V28.7953ZM21.7618 28.3895C21.2924 28.1212 20.9234 27.7439 20.6522 27.2498L20.0386 27.5867C20.3699 28.1902 20.8295 28.6629 21.4145 28.9972L21.7618 28.3895ZM20.656 27.257C20.3949 26.754 20.2596 26.1705 20.2596 25.4976H19.5596C19.5596 26.2666 19.7149 26.9635 20.0348 27.5796L20.656 27.257ZM20.2596 25.4976C20.2596 25.1983 20.2895 24.8924 20.3501 24.5796L19.6628 24.4466C19.5942 24.8009 19.5596 25.1514 19.5596 25.4976H20.2596ZM27.6281 24.6175C27.6767 24.3864 27.7001 24.1414 27.7001 23.8836H27.0001C27.0001 24.0993 26.9805 24.2954 26.9431 24.4733L27.6281 24.6175ZM27.7001 23.8836C27.7001 23.0889 27.4601 22.424 26.9456 21.9352L26.4635 22.4427C26.8098 22.7716 27.0001 23.2365 27.0001 23.8836H27.7001ZM26.952 21.9414C26.4618 21.4513 25.8433 21.2095 25.1228 21.2095V21.9095C25.672 21.9095 26.108 22.0873 26.4571 22.4364L26.952 21.9414ZM25.1228 21.2095C24.5885 21.2095 24.0704 21.3436 23.5724 21.6045L23.8972 22.2246C24.303 22.012 24.7103 21.9095 25.1228 21.9095V21.2095ZM23.5783 21.6015C23.0716 21.8548 22.6376 22.2322 22.275 22.7235L22.8382 23.1392C23.1426 22.7267 23.4941 22.4262 23.8913 22.2276L23.5783 21.6015ZM22.2774 22.7203C21.9063 23.211 21.6661 23.7915 21.5501 24.4526L22.2396 24.5736C22.3388 24.008 22.5397 23.534 22.8357 23.1424L22.2774 22.7203ZM21.5523 24.441C21.5037 24.672 21.4803 24.917 21.4803 25.1748H22.1803C22.1803 24.9592 22.1999 24.763 22.2373 24.5852L21.5523 24.441ZM21.4803 25.1748C21.4803 25.9767 21.7124 26.6528 22.2091 27.1623L22.7103 26.6736C22.3677 26.3222 22.1803 25.8363 22.1803 25.1748H21.4803ZM22.2154 27.1685C22.7151 27.6558 23.3371 27.8974 24.0576 27.8974V27.1974C23.5084 27.1974 23.0651 27.0194 22.7041 26.6673L22.2154 27.1685ZM24.0576 27.8974C24.5919 27.8974 25.11 27.7632 25.608 27.5024L25.2832 26.8823C24.8774 27.0948 24.4701 27.1974 24.0576 27.1974V27.8974ZM25.608 27.5024C26.1115 27.2386 26.5436 26.8574 26.9054 26.3672L26.3422 25.9515C26.0369 26.3651 25.6836 26.6726 25.2832 26.8823L25.608 27.5024ZM26.9078 26.364C27.275 25.8547 27.5144 25.2664 27.6303 24.6058L26.9408 24.4849C26.8415 25.051 26.6398 25.5387 26.3399 25.9547L26.9078 26.364ZM30.1381 24.5131L30.4817 24.5796L30.4825 24.5753L30.1381 24.5131ZM31.1065 22.1405L30.8223 21.9362L30.8202 21.9392L31.1065 22.1405ZM32.9142 20.5426L33.0781 20.8519L33.0817 20.8499L32.9142 20.5426ZM36.8039 20.349L36.6473 20.6621L36.6526 20.6646L36.8039 20.349ZM37.9821 21.3496L37.6875 21.5385L38.1709 22.2927L38.3268 21.4105L37.9821 21.3496ZM38.7407 17.0564V16.7064H38.4471L38.396 16.9955L38.7407 17.0564ZM40.5968 17.0564L40.9414 17.1174L41.0142 16.7064H40.5968V17.0564ZM38.4825 29V29.35H38.7759L38.8271 29.061L38.4825 29ZM36.6264 29L36.2819 28.9378L36.2074 29.35H36.6264V29ZM36.8685 27.6604L37.2129 27.7226L37.437 26.4824L36.6054 27.4294L36.8685 27.6604ZM35.4159 28.7418L35.5652 29.0583L35.5677 29.0571L35.4159 28.7418ZM31.7198 28.6933L31.5461 28.9972L31.7198 28.6933ZM30.477 27.4183L30.1663 27.5796L30.1702 27.5867L30.477 27.4183ZM37.4172 24.5454L37.0745 24.4732L37.0725 24.4849L37.4172 24.5454ZM36.8362 22.1889L36.5886 22.4365L36.5951 22.4427L36.8362 22.1889ZM33.8664 21.9145L34.023 22.2276L34.0288 22.2246L33.8664 21.9145ZM32.6882 22.9314L32.9674 23.1425L32.9698 23.1392L32.6882 22.9314ZM32.0265 24.5131L32.3691 24.5852L32.3712 24.5736L32.0265 24.5131ZM32.5914 26.9179L32.3407 27.1624L32.347 27.1685L32.5914 26.9179ZM36.7555 26.1594L37.0371 26.3672L37.0394 26.364L36.7555 26.1594ZM30.4825 24.5753C30.6356 23.7283 30.9401 22.9857 31.3928 22.3418L30.8202 21.9392C30.3045 22.6726 29.9634 23.5117 29.7937 24.4508L30.4825 24.5753ZM31.3907 22.3448C31.856 21.6974 32.4182 21.2018 33.0781 20.8519L32.7502 20.2334C31.9898 20.6367 31.3469 21.2063 30.8223 21.9362L31.3907 22.3448ZM33.0817 20.8499C33.7421 20.4897 34.4325 20.3116 35.1576 20.3116V19.6116C34.3118 19.6116 33.5065 19.8208 32.7466 20.2354L33.0817 20.8499ZM35.1576 20.3116C35.6847 20.3116 36.1798 20.4282 36.6474 20.662L36.9604 20.0359C36.395 19.7532 35.7926 19.6116 35.1576 19.6116V20.3116ZM36.6526 20.6646C37.1194 20.8882 37.4585 21.1814 37.6875 21.5385L38.2768 21.1608C37.9677 20.6786 37.5213 20.3046 36.9551 20.0333L36.6526 20.6646ZM38.3268 21.4105L39.0854 17.1173L38.396 16.9955L37.6375 21.2887L38.3268 21.4105ZM38.7407 17.4064H40.5968V16.7064H38.7407V17.4064ZM40.2522 16.9954L38.1378 28.939L38.8271 29.061L40.9414 17.1174L40.2522 16.9954ZM38.4825 28.65H36.6264V29.35H38.4825V28.65ZM36.9708 29.0622L37.2129 27.7226L36.524 27.5981L36.2819 28.9378L36.9708 29.0622ZM36.6054 27.4294C36.252 27.832 35.8069 28.165 35.264 28.4264L35.5677 29.0571C36.1869 28.759 36.7102 28.3711 37.1315 27.8913L36.6054 27.4294ZM35.2665 28.4252C34.7471 28.6702 34.1693 28.7953 33.5275 28.7953V29.4953C34.2629 29.4953 34.944 29.3513 35.5652 29.0583L35.2665 28.4252ZM33.5275 28.7953C32.9033 28.7953 32.3618 28.6571 31.8934 28.3895L31.5461 28.9972C32.1322 29.3321 32.7959 29.4953 33.5275 29.4953V28.7953ZM31.8934 28.3895C31.424 28.1212 31.0551 27.7439 30.7838 27.2498L30.1702 27.5867C30.5015 28.1902 30.9611 28.6629 31.5461 28.9972L31.8934 28.3895ZM30.7876 27.257C30.5265 26.754 30.3912 26.1705 30.3912 25.4976H29.6912C29.6912 26.2666 29.8465 26.9635 30.1664 27.5796L30.7876 27.257ZM30.3912 25.4976C30.3912 25.1983 30.4212 24.8924 30.4817 24.5796L29.7944 24.4466C29.7259 24.8009 29.6912 25.1514 29.6912 25.4976H30.3912ZM37.7597 24.6175C37.8083 24.3864 37.8318 24.1414 37.8318 23.8836H37.1318C37.1318 24.0993 37.1122 24.2954 37.0747 24.4733L37.7597 24.6175ZM37.8318 23.8836C37.8318 23.0889 37.5917 22.424 37.0772 21.9352L36.5951 22.4427C36.9414 22.7716 37.1318 23.2365 37.1318 23.8836H37.8318ZM37.0837 21.9414C36.5935 21.4513 35.975 21.2095 35.2545 21.2095V21.9095C35.8036 21.9095 36.2396 22.0873 36.5887 22.4364L37.0837 21.9414ZM35.2545 21.2095C34.7201 21.2095 34.2021 21.3436 33.704 21.6045L34.0288 22.2246C34.4346 22.012 34.8419 21.9095 35.2545 21.9095V21.2095ZM33.7099 21.6015C33.2033 21.8548 32.7692 22.2322 32.4066 22.7235L32.9698 23.1392C33.2743 22.7267 33.6257 22.4262 34.0229 22.2276L33.7099 21.6015ZM32.409 22.7203C32.0379 23.211 31.7977 23.7915 31.6817 24.4526L32.3712 24.5736C32.4704 24.008 32.6713 23.534 32.9674 23.1424L32.409 22.7203ZM31.684 24.441C31.6353 24.672 31.6119 24.917 31.6119 25.1748H32.3119C32.3119 24.9592 32.3315 24.763 32.3689 24.5852L31.684 24.441ZM31.6119 25.1748C31.6119 25.9767 31.8441 26.6528 32.3408 27.1623L32.842 26.6736C32.4994 26.3222 32.3119 25.8363 32.3119 25.1748H31.6119ZM32.347 27.1685C32.8467 27.6558 33.4687 27.8974 34.1892 27.8974V27.1974C33.64 27.1974 33.1968 27.0194 32.8357 26.6673L32.347 27.1685ZM34.1892 27.8974C34.7236 27.8974 35.2416 27.7632 35.7397 27.5024L35.4148 26.8823C35.0091 27.0948 34.6018 27.1974 34.1892 27.1974V27.8974ZM35.7397 27.5024C36.2431 27.2386 36.6753 26.8574 37.0371 26.3672L36.4739 25.9515C36.1686 26.3651 35.8152 26.6726 35.4148 26.8823L35.7397 27.5024ZM37.0394 26.364C37.4066 25.8547 37.6461 25.2664 37.7619 24.6058L37.0725 24.4849C36.9732 25.051 36.7715 25.5387 36.4716 25.9547L37.0394 26.364Z" fill="black" mask="url(#path-3-outside-2_37_49)"/>
<path d="M5.93931 17.4171L8.11203 17.4222L7.49215 20.9377L5.37164 20.5638L5.93931 17.4171Z" fill="#FF0000"/>
</svg>
